<svg width="155" height="110" viewBox="0 0 155 110" fill="none" xmlns="http://www.w3.org/2000/svg">
<g filter="url(#filter0_ddi_2517_5751)">
<mask id="path-1-inside-1_2517_5751" fill="white">
<path d="M99.6611 22.7881C90.7577 22.7881 83.1844 28.4793 80.3779 36.4219L41.2422 36.4219C37.4782 36.422 34.4268 39.4733 34.4268 43.2373C34.4268 47.0014 37.479 50.0527 41.2432 50.0527L41.2432 55.1621C41.2433 57.9851 43.5324 60.2734 46.3555 60.2734C49.1783 60.2732 51.4667 57.985 51.4668 55.1621L51.4668 50.0527L54.875 50.0527L54.875 51.7549C54.875 54.5779 57.1633 56.8662 59.9863 56.8662C62.8094 56.8662 65.0976 54.578 65.0977 51.7549L65.0977 50.0527L80.3789 50.0527C83.1866 57.9929 90.7594 63.6816 99.6611 63.6816L100.188 63.6748C111.237 63.3949 120.107 54.3503 120.107 43.2344C120.107 31.9423 110.953 22.7883 99.6611 22.7881ZM99.6611 36.2637C103.511 36.2639 106.632 39.3847 106.632 43.2344C106.632 47.0843 103.511 50.2058 99.6611 50.2061C95.9315 50.2061 92.885 47.277 92.6982 43.5938L92.6895 43.2344L92.6982 42.876C92.879 39.3115 95.7374 36.4532 99.3018 36.2725L99.6611 36.2637Z"/>
</mask>
<path d="M99.6611 22.7881C90.7577 22.7881 83.1844 28.4793 80.3779 36.4219L41.2422 36.4219C37.4782 36.422 34.4268 39.4733 34.4268 43.2373C34.4268 47.0014 37.479 50.0527 41.2432 50.0527L41.2432 55.1621C41.2433 57.9851 43.5324 60.2734 46.3555 60.2734C49.1783 60.2732 51.4667 57.985 51.4668 55.1621L51.4668 50.0527L54.875 50.0527L54.875 51.7549C54.875 54.5779 57.1633 56.8662 59.9863 56.8662C62.8094 56.8662 65.0976 54.578 65.0977 51.7549L65.0977 50.0527L80.3789 50.0527C83.1866 57.9929 90.7594 63.6816 99.6611 63.6816L100.188 63.6748C111.237 63.3949 120.107 54.3503 120.107 43.2344C120.107 31.9423 110.953 22.7883 99.6611 22.7881ZM99.6611 36.2637C103.511 36.2639 106.632 39.3847 106.632 43.2344C106.632 47.0843 103.511 50.2058 99.6611 50.2061C95.9315 50.2061 92.885 47.277 92.6982 43.5938L92.6895 43.2344L92.6982 42.876C92.879 39.3115 95.7374 36.4532 99.3018 36.2725L99.6611 36.2637Z" fill="#FFBA08"/>
<path d="M99.6611 22.7881L99.6611 21.6543L99.6612 21.6543L99.6611 22.7881ZM80.3779 36.4219L81.4469 36.7996L81.1798 37.5556L80.3779 37.5556L80.3779 36.4219ZM41.2422 36.4219L41.2422 35.2881L41.2422 35.2881L41.2422 36.4219ZM34.4268 43.2373L33.293 43.2373L33.293 43.2373L34.4268 43.2373ZM41.2432 50.0527L41.2432 48.919L42.3769 48.919L42.3769 50.0527L41.2432 50.0527ZM41.2432 55.1621L40.1094 55.1622L40.1094 55.1621L41.2432 55.1621ZM46.3555 60.2734L46.3556 61.4072L46.3555 61.4072L46.3555 60.2734ZM51.4668 55.1621L52.6006 55.1621L52.6006 55.1622L51.4668 55.1621ZM51.4668 50.0527L50.333 50.0527L50.333 48.919L51.4668 48.919L51.4668 50.0527ZM54.875 50.0527L54.875 48.919L56.0088 48.919L56.0088 50.0527L54.875 50.0527ZM54.875 51.7549L53.7412 51.7549L53.7412 51.7549L54.875 51.7549ZM59.9863 56.8662L59.9863 58L59.9863 58L59.9863 56.8662ZM65.0977 51.7549L66.2314 51.7549L66.2314 51.7549L65.0977 51.7549ZM65.0977 50.0527L63.9639 50.0527L63.9639 48.919L65.0977 48.919L65.0977 50.0527ZM80.3789 50.0527L80.3789 48.919L81.1806 48.919L81.4478 49.6748L80.3789 50.0527ZM99.6611 63.6816L99.6758 64.8153L99.6685 64.8154L99.6611 64.8154L99.6611 63.6816ZM100.188 63.6748L100.217 64.8083L100.203 64.8085L100.188 63.6748ZM120.107 43.2344L121.241 43.2344L121.241 43.2344L120.107 43.2344ZM99.6611 36.2637L99.6334 35.1302L99.6473 35.1299L99.6612 35.1299L99.6611 36.2637ZM106.632 43.2344L107.766 43.2343L107.766 43.2344L106.632 43.2344ZM99.6611 50.2061L99.6612 51.3398L99.6611 51.3398L99.6611 50.2061ZM92.6982 43.5938L91.5659 43.6512L91.5652 43.6363L91.5648 43.6215L92.6982 43.5938ZM92.6895 43.2344L91.556 43.2621L91.5553 43.2343L91.556 43.2066L92.6895 43.2344ZM92.6982 42.876L91.5648 42.8482L91.5652 42.8334L91.5659 42.8186L92.6982 42.876ZM99.3018 36.2725L99.2443 35.1401L99.2592 35.1394L99.274 35.139L99.3018 36.2725ZM99.6611 22.7881L99.6611 23.9219C91.2533 23.9219 84.0983 29.2958 81.4469 36.7996L80.3779 36.4219L79.3089 36.0442C82.2704 27.6628 90.2621 21.6543 99.6611 21.6543L99.6611 22.7881ZM80.3779 36.4219L80.3779 37.5556L41.2422 37.5557L41.2422 36.4219L41.2422 35.2881L80.3779 35.2881L80.3779 36.4219ZM41.2422 36.4219L41.2422 37.5557C38.1043 37.5557 35.5606 40.0995 35.5605 43.2373L34.4268 43.2373L33.293 43.2373C33.2931 38.8471 36.852 35.2882 41.2422 35.2881L41.2422 36.4219ZM34.4268 43.2373L35.5605 43.2373C35.5605 46.3751 38.105 48.919 41.2432 48.919L41.2432 50.0527L41.2432 51.1865C36.8531 51.1865 33.293 47.6278 33.293 43.2373L34.4268 43.2373ZM41.2432 50.0527L42.3769 50.0527L42.3769 55.1621L41.2432 55.1621L40.1094 55.1621L40.1094 50.0527L41.2432 50.0527ZM41.2432 55.1621L42.3769 55.1621C42.377 57.3587 44.1584 59.1397 46.3555 59.1397L46.3555 60.2734L46.3555 61.4072C42.9065 61.4072 40.1096 58.6115 40.1094 55.1622L41.2432 55.1621ZM46.3555 60.2734L46.3554 59.1397C48.5522 59.1395 50.3329 57.3588 50.333 55.1621L51.4668 55.1621L52.6006 55.1622C52.6004 58.6112 49.8045 61.407 46.3556 61.4072L46.3555 60.2734ZM51.4668 55.1621L50.333 55.1621L50.333 50.0527L51.4668 50.0527L52.6006 50.0527L52.6006 55.1621L51.4668 55.1621ZM51.4668 50.0527L51.4668 48.919L54.875 48.919L54.875 50.0527L54.875 51.1865L51.4668 51.1865L51.4668 50.0527ZM54.875 50.0527L56.0088 50.0527L56.0088 51.7549L54.875 51.7549L53.7412 51.7549L53.7412 50.0527L54.875 50.0527ZM54.875 51.7549L56.0088 51.7549C56.0088 53.9517 57.7895 55.7324 59.9864 55.7324L59.9863 56.8662L59.9863 58C56.5371 57.9999 53.7413 55.2041 53.7412 51.7549L54.875 51.7549ZM59.9863 56.8662L59.9863 55.7324C62.1832 55.7324 63.9639 53.9518 63.9639 51.7549L65.0977 51.7549L66.2314 51.7549C66.2314 55.2041 63.4356 58 59.9863 58L59.9863 56.8662ZM65.0977 51.7549L63.9639 51.7549L63.9639 50.0527L65.0977 50.0527L66.2314 50.0527L66.2314 51.7549L65.0977 51.7549ZM65.0977 50.0527L65.0977 48.919L80.3789 48.919L80.3789 50.0527L80.3789 51.1865L65.0977 51.1865L65.0977 50.0527ZM80.3789 50.0527L81.4478 49.6748C84.1004 57.1762 91.2549 62.5479 99.6611 62.5479L99.6611 63.6816L99.6611 64.8154C90.264 64.8154 82.2728 58.8096 79.31 50.4307L80.3789 50.0527ZM99.6611 63.6816L99.6464 62.548L100.174 62.5411L100.188 63.6748L100.203 64.8085L99.6758 64.8153L99.6611 63.6816ZM100.188 63.6748L100.16 62.5414C110.595 62.277 118.974 53.7338 118.974 43.2344L120.107 43.2344L121.241 43.2344C121.241 54.9669 111.879 64.5127 100.217 64.8082L100.188 63.6748ZM120.107 43.2344L118.974 43.2344C118.973 32.5685 110.327 23.9221 99.6611 23.9219L99.6611 22.7881L99.6612 21.6543C111.579 21.6546 121.241 31.3161 121.241 43.2344L120.107 43.2344ZM99.6611 36.2637L99.6612 35.1299C104.137 35.1302 107.765 38.7585 107.766 43.2343L106.632 43.2344L105.498 43.2344C105.498 40.0108 102.885 37.3976 99.6611 37.3974L99.6611 36.2637ZM106.632 43.2344L107.766 43.2344C107.766 47.7103 104.137 51.3395 99.6612 51.3398L99.6611 50.2061L99.6611 49.0723C102.885 49.0721 105.498 46.4583 105.498 43.2344L106.632 43.2344ZM99.6611 50.2061L99.6611 51.3398C95.3247 51.3398 91.7832 47.9346 91.5659 43.6512L92.6982 43.5938L93.8306 43.5363C93.9869 46.6194 96.5382 49.0723 99.6611 49.0723L99.6611 50.2061ZM92.6982 43.5938L91.5648 43.6215L91.556 43.2621L92.6895 43.2344L93.8229 43.2067L93.8317 43.566L92.6982 43.5938ZM92.6895 43.2344L91.556 43.2066L91.5648 42.8482L92.6982 42.876L93.8317 42.9038L93.8229 43.2622L92.6895 43.2344ZM92.6982 42.876L91.5659 42.8186C91.7761 38.6731 95.0989 35.3504 99.2443 35.1401L99.3018 36.2725L99.3592 37.4048C96.3758 37.5561 93.9818 39.95 93.8306 42.9334L92.6982 42.876ZM99.3018 36.2725L99.274 35.139L99.6334 35.1302L99.6611 36.2637L99.6889 37.3971L99.3295 37.4059L99.3018 36.2725Z" fill="url(#paint0_linear_2517_5751)" fill-opacity="0.25" mask="url(#path-1-inside-1_2517_5751)"/>
</g>
<path d="M115.002 22.875L108.474 24.2256L107.127 30.75L105.78 24.2256L99.2519 22.875L105.78 21.5284L107.127 15L108.474 21.5284L115.002 22.875Z" fill="white"/>
<path d="M49.75 58.875L43.2216 60.2256L41.875 66.75L40.5283 60.2256L34 58.875L40.5283 57.5284L41.875 51L43.2216 57.5284L49.75 58.875Z" fill="white"/>
<path d="M124 61.124L117.472 62.4746L116.125 68.9991L114.778 62.4746L108.25 61.124L114.778 59.7774L116.125 53.249L117.472 59.7774L124 61.124Z" fill="white"/>
<g filter="url(#filter1_f_2517_5751)">
<rect x="46" y="77.2349" width="66" height="6" rx="3" fill="black" fill-opacity="0.15"/>
</g>
<defs>
<filter id="filter0_ddi_2517_5751" x="0.41457" y="0.112642" width="153.706" height="108.92" filterUnits="userSpaceOnUse" color-interpolation-filters="sRGB">
<feFlood flood-opacity="0" result="BackgroundImageFix"/>
<feColorMatrix in="SourceAlpha" type="matrix" values="0 0 0 0 0 0 0 0 0 0 0 0 0 0 0 0 0 0 127 0" result="hardAlpha"/>
<feOffset dy="11.3377"/>
<feGaussianBlur stdDeviation="17.0066"/>
<feComposite in2="hardAlpha" operator="out"/>
<feColorMatrix type="matrix" values="0 0 0 0 1 0 0 0 0 1 0 0 0 0 1 0 0 0 0.2 0"/>
<feBlend mode="normal" in2="BackgroundImageFix" result="effect1_dropShadow_2517_5751"/>
<feColorMatrix in="SourceAlpha" type="matrix" values="0 0 0 0 0 0 0 0 0 0 0 0 0 0 0 0 0 0 127 0" result="hardAlpha"/>
<feOffset dy="4"/>
<feGaussianBlur stdDeviation="1"/>
<feComposite in2="hardAlpha" operator="out"/>
<feColorMatrix type="matrix" values="0 0 0 0 1 0 0 0 0 1 0 0 0 0 1 0 0 0 0.2 0"/>
<feBlend mode="normal" in2="effect1_dropShadow_2517_5751" result="effect2_dropShadow_2517_5751"/>
<feBlend mode="normal" in="SourceGraphic" in2="effect2_dropShadow_2517_5751" result="shape"/>
<feColorMatrix in="SourceAlpha" type="matrix" values="0 0 0 0 0 0 0 0 0 0 0 0 0 0 0 0 0 0 127 0" result="hardAlpha"/>
<feOffset dy="11.3377"/>
<feGaussianBlur stdDeviation="8.50329"/>
<feComposite in2="hardAlpha" operator="arithmetic" k2="-1" k3="1"/>
<feColorMatrix type="matrix" values="0 0 0 0 1 0 0 0 0 1 0 0 0 0 1 0 0 0 0.5 0"/>
<feBlend mode="normal" in2="shape" result="effect3_innerShadow_2517_5751"/>
</filter>
<filter id="filter1_f_2517_5751" x="36" y="67.2349" width="86" height="26" filterUnits="userSpaceOnUse" color-interpolation-filters="sRGB">
<feFlood flood-opacity="0" result="BackgroundImageFix"/>
<feBlend mode="normal" in="SourceGraphic" in2="BackgroundImageFix" result="shape"/>
<feGaussianBlur stdDeviation="5" result="effect1_foregroundBlur_2517_5751"/>
</filter>
<linearGradient id="paint0_linear_2517_5751" x1="77.2671" y1="22.7881" x2="77.2671" y2="63.6815" gradientUnits="userSpaceOnUse">
<stop stop-color="white" stop-opacity="0.4"/>
<stop offset="1" stop-color="white"/>
</linearGradient>
</defs>
</svg>
