<svg width="39" height="48" viewBox="0 0 39 48" fill="none" xmlns="http://www.w3.org/2000/svg">
<path d="M12.0285 21.6629C12.5166 13.6751 16.2047 7.4565 20.9233 1.66674C21.6284 0.809 22.3877 -0.370396 23.7979 0.112084C25.1538 0.487346 25.1538 1.72035 25.3165 2.89975C25.7504 6.27711 27.486 9.11838 29.3842 11.8524C32.6927 16.7308 36.4892 21.2876 37.8994 27.2382C39.9062 35.7084 33.0181 46.3766 24.3945 47.9312C23.364 48.0921 22.3877 48.0384 21.7911 47.0199C21.1945 45.9477 21.7911 45.1436 22.4962 44.393C24.9368 41.8198 27.0521 39.1394 26.9436 35.2795C26.8894 32.5455 25.4792 30.5619 23.4725 28.9001C22.442 28.0423 21.7369 28.2568 21.9538 29.6506C22.3335 32.9743 20.5979 35.2259 18.4284 37.3703C15.7166 39.9971 13.1133 42.6239 11.9743 46.4302C11.3777 48.5209 9.69635 48.2529 8.12348 46.9663C2.10322 41.927 -0.0662502 35.3867 1.01848 27.8279C1.56085 24.1825 2.69982 20.6979 4.0015 17.2669C4.43539 16.1411 4.86928 15.0154 6.27944 14.9081C7.79806 14.8009 8.12348 16.0339 8.55738 17.1061C9.26245 18.768 9.85905 20.5907 12.0285 21.6629Z" fill="url(#paint0_linear_2525_6240)"/>
<path d="M22.4346 0.835938C22.7677 0.585383 23.1184 0.474223 23.6162 0.644531L23.6475 0.654297C24.1298 0.787801 24.3434 1.04547 24.4785 1.40332C24.6387 1.82762 24.6689 2.32514 24.7588 2.97656V2.97559C25.2122 6.49658 27.0198 9.43329 28.9219 12.1729C32.2728 17.1132 35.9727 21.5497 37.3516 27.3682C38.3106 31.4166 37.1503 36.0444 34.6621 39.8711C32.1764 43.6937 28.4235 46.6283 24.3076 47.375C23.8173 47.4515 23.409 47.4647 23.0762 47.375C22.7709 47.2927 22.501 47.117 22.2783 46.7383C22.0658 46.3521 22.078 46.0582 22.1816 45.7852C22.3015 45.4695 22.5552 45.15 22.9053 44.7773C25.3552 42.1941 27.6212 39.3673 27.5059 35.2637C27.4457 32.3091 25.9084 30.1871 23.8311 28.4668C23.5456 28.2294 23.255 28.0418 22.9697 27.9336C22.69 27.8275 22.3474 27.7736 22.0215 27.915C21.6763 28.0648 21.4895 28.3705 21.4092 28.6855C21.3329 28.9849 21.3386 29.3357 21.3955 29.7139L21.3945 29.7148C21.7209 32.5733 20.3676 34.5841 18.4287 36.5723L18.0371 36.9658C15.3328 39.5853 12.6218 42.3046 11.4355 46.2686L11.4336 46.2754C11.3034 46.7316 11.1286 47.0065 10.958 47.166C10.7953 47.3182 10.6088 47.3926 10.3877 47.4033C9.96596 47.4237 9.39545 47.2099 8.75684 46.7451L8.47949 46.5312C2.62543 41.6287 0.517151 35.2903 1.5752 27.9111C2.10872 24.3252 3.23078 20.8843 4.52734 17.4668L4.52637 17.4658C4.75008 16.8854 4.94092 16.4078 5.21875 16.0508C5.4698 15.7284 5.78953 15.5099 6.31836 15.4688L6.31934 15.4697C6.61949 15.4486 6.82607 15.4951 6.97656 15.5654C7.12762 15.6361 7.25674 15.7468 7.37695 15.9053C7.64314 16.2562 7.79579 16.7235 8.03613 17.3174L8.04004 17.3262C8.72398 18.9383 9.38914 20.9857 11.7793 22.167L12.5381 22.542L12.5898 21.6973C13.0676 13.8792 16.6725 7.77113 21.3584 2.02148C21.7468 1.54879 22.0511 1.12444 22.4346 0.835938Z" stroke="white" stroke-opacity="0.25" stroke-width="1.125"/>
<defs>
<linearGradient id="paint0_linear_2525_6240" x1="19.5" y1="0" x2="19.5" y2="48" gradientUnits="userSpaceOnUse">
<stop stop-color="#FF9B4C"/>
<stop offset="1" stop-color="#FF7000"/>
</linearGradient>
</defs>
</svg>
