<svg width="45" height="48" viewBox="0 0 45 48" fill="none" xmlns="http://www.w3.org/2000/svg">
<path d="M25.8904 47.9774C25.8904 41.8242 25.8904 35.6936 25.8904 29.5404C23.4262 29.5404 21.007 29.5404 18.5277 29.5404C18.5277 35.6786 18.5277 41.8167 18.5277 47.9999C18.3399 47.9999 18.2047 47.9999 18.0695 47.9999C13.9524 47.9999 9.8278 47.9999 5.71072 47.9999C4.46358 47.9999 3.70478 47.2411 3.69727 45.9864C3.69727 40.5395 3.69727 35.0926 3.69727 29.6456C3.69727 28.421 4.46358 27.6472 5.68819 27.6396C16.6946 27.6396 27.701 27.6396 38.7074 27.6396C39.932 27.6396 40.6983 28.4135 40.6983 29.6381C40.6983 35.1001 40.6983 40.5545 40.6983 46.0165C40.6983 47.2186 39.9245 47.9924 38.73 47.9924C34.5828 47.9924 30.4432 47.9924 26.2961 47.9924C26.1759 47.9999 26.0557 47.9849 25.8904 47.9774Z" fill="white"/>
<path d="M25.8876 18.414C25.6998 18.414 25.5796 18.414 25.4594 18.414C23.2957 18.414 21.1244 18.4215 18.9607 18.4065C18.5851 18.4065 18.5099 18.5192 18.5099 18.8723C18.525 21.0285 18.5099 23.1773 18.525 25.3335C18.525 25.6941 18.4498 25.8294 18.0516 25.8294C12.7175 25.8143 7.38331 25.8218 2.04915 25.8218C0.771952 25.8218 0.0131476 25.0705 0.00563468 23.8008C-0.00187823 22.0578 -0.00187823 20.3223 0.00563468 18.5793C0.00563468 17.3021 0.764439 16.5508 2.04163 16.5508C15.4747 16.5508 28.9078 16.5508 42.3409 16.5508C43.6406 16.5508 44.3844 17.3096 44.3919 18.6093C44.3919 20.3373 44.3994 22.0653 44.3919 23.7933C44.3919 25.0705 43.6331 25.8294 42.3634 25.8294C37.0142 25.8294 31.6725 25.8294 26.3234 25.8369C25.9778 25.8369 25.8726 25.7392 25.8801 25.3936C25.8951 23.2374 25.8876 21.0886 25.8876 18.9324C25.8876 18.7746 25.8876 18.6244 25.8876 18.414Z" fill="white"/>
<path d="M25.5518 9.90217C26.1378 11.0066 25.9274 12.1561 25.8373 13.2755C25.7772 14.0794 24.9733 14.6955 24.1018 14.7105C22.8396 14.7406 21.5699 14.7406 20.3078 14.7105C19.271 14.688 18.5272 13.9141 18.5047 12.8773C18.4897 12.2537 18.4671 11.6226 18.5122 10.9991C18.5422 10.6384 18.6925 10.2853 18.8052 9.85709C18.5197 9.64673 18.1816 9.36874 17.8285 9.12081C16.3785 8.09153 14.9285 7.06225 13.4635 6.05551C12.7798 5.5897 12.0436 5.2441 11.1721 5.477C9.16613 6.02545 8.3322 8.31692 9.53427 10.0149C10.3306 11.1343 11.3975 11.9758 12.5469 12.6895C13.5537 13.3206 14.6055 13.869 15.6423 14.4551C15.7474 14.5152 15.8526 14.5678 15.9879 14.6354C15.9202 14.6804 15.8902 14.7105 15.8601 14.7105C14.4853 14.6955 13.0728 14.8683 11.7431 14.6354C9.12857 14.1696 6.85216 12.9299 5.12419 10.8638C3.58404 9.02315 3.47135 6.97209 4.53818 4.86845C5.39465 3.1705 6.58169 1.71298 8.17443 0.653646C9.72209 -0.38315 11.3073 -0.165275 12.5019 1.2622C14.1472 3.23061 15.7249 5.25913 17.3252 7.25759C17.9337 8.0164 18.5498 8.77522 19.1884 9.56408C19.7518 9.1133 20.3979 9.15838 21.0365 9.15838C21.8479 9.15838 22.6668 9.16589 23.4782 9.15838C24.0717 9.15086 24.6578 9.15838 25.1761 9.54906C25.2813 9.43636 25.364 9.34621 25.4466 9.24854C27.4826 6.70914 29.5186 4.16974 31.5546 1.63034C31.6748 1.48759 31.7875 1.33733 31.9152 1.2021C33.1023 -0.120191 34.6574 -0.398173 36.13 0.601058C38.0833 1.92335 39.5408 3.70393 40.2771 5.96534C40.8781 7.80603 40.4499 9.49647 39.1952 10.939C37.4372 12.975 35.1683 14.2146 32.5463 14.6504C31.2316 14.8683 29.8492 14.703 28.4968 14.7105C28.4818 14.7105 28.4593 14.6804 28.3917 14.6279C28.5194 14.5678 28.6171 14.5152 28.7222 14.4626C30.5103 13.576 32.2608 12.6219 33.7183 11.2395C34.2743 10.7136 34.7701 10.09 35.1608 9.43636C35.7017 8.51226 35.559 7.58064 34.8603 6.75421C34.8453 6.73167 34.8302 6.71665 34.8077 6.69411C33.4779 5.14643 32.4562 4.99617 30.7733 6.15317C29.1054 7.30266 27.4676 8.49723 25.8147 9.67678C25.7321 9.74439 25.6419 9.82704 25.5518 9.90217Z" fill="white"/>
</svg>
