<svg width="29" height="48" viewBox="0 0 29 48" fill="none" xmlns="http://www.w3.org/2000/svg">
<mask id="path-1-inside-1_2529_6314" fill="white">
<path d="M4.35156 12.9814C4.35156 17.729 7.38631 21.7662 11.6211 23.2637L11.6211 44.1387C11.6211 46.1462 13.2493 47.7734 15.2568 47.7734C17.2642 47.7732 18.8916 46.1461 18.8916 44.1387L18.8916 44.1367L21.6133 44.1367C23.1186 44.1365 24.3387 42.9165 24.3389 41.4111C24.3389 39.9056 23.1187 38.6848 21.6133 38.6846L18.8916 38.6846L18.8916 36.8672L19.7949 36.8672C21.3006 36.8672 22.5215 35.6463 22.5215 34.1406C22.5214 32.6351 21.3005 31.415 19.7949 31.415L18.8916 31.415L18.8916 23.2656C23.1268 21.7685 26.1611 17.7293 26.1611 12.9814L26.1465 12.4209C25.8544 6.65917 21.0902 2.07715 15.2559 2.07715C9.23377 2.07742 4.35191 6.95937 4.35156 12.9814ZM11.7617 12.9814C11.7621 11.0516 13.326 9.48757 15.2559 9.4873L15.4365 9.49121C17.2828 9.58497 18.7506 11.1119 18.751 12.9814C18.751 14.9117 17.1861 16.4766 15.2559 16.4766C13.3862 16.4763 11.8594 15.0085 11.7656 13.1621L11.7617 12.9814Z"/>
</mask>
<g filter="url(#filter0_i_2529_6314)">
<path d="M4.35156 12.9814C4.35156 17.729 7.38631 21.7662 11.6211 23.2637L11.6211 44.1387C11.6211 46.1462 13.2493 47.7734 15.2568 47.7734C17.2642 47.7732 18.8916 46.1461 18.8916 44.1387L18.8916 44.1367L21.6133 44.1367C23.1186 44.1365 24.3387 42.9165 24.3389 41.4111C24.3389 39.9056 23.1187 38.6848 21.6133 38.6846L18.8916 38.6846L18.8916 36.8672L19.7949 36.8672C21.3006 36.8672 22.5215 35.6463 22.5215 34.1406C22.5214 32.6351 21.3005 31.415 19.7949 31.415L18.8916 31.415L18.8916 23.2656C23.1268 21.7685 26.1611 17.7293 26.1611 12.9814L26.1465 12.4209C25.8544 6.65917 21.0902 2.07715 15.2559 2.07715C9.23377 2.07742 4.35191 6.95937 4.35156 12.9814ZM11.7617 12.9814C11.7621 11.0516 13.326 9.48757 15.2559 9.4873L15.4365 9.49121C17.2828 9.58497 18.7506 11.1119 18.751 12.9814C18.751 14.9117 17.1861 16.4766 15.2559 16.4766C13.3862 16.4763 11.8594 15.0085 11.7656 13.1621L11.7617 12.9814Z" fill="#FFBA08"/>
</g>
<path d="M4.35156 12.9814L2.43159 12.9814L2.43159 12.9813L4.35156 12.9814ZM11.6211 23.2637L12.2612 21.4535L13.5411 21.9061L13.5411 23.2637L11.6211 23.2637ZM11.6211 44.1387L9.70112 44.1387L11.6211 44.1387ZM15.2568 47.7734L15.257 49.6934L15.2568 49.6934L15.2568 47.7734ZM18.8916 44.1367L16.9716 44.1367L16.9716 42.2167L18.8916 42.2167L18.8916 44.1367ZM21.6133 44.1367L21.6136 46.0567L21.6133 46.0567L21.6133 44.1367ZM24.3389 41.4111L26.2588 41.4111L26.2588 41.4114L24.3389 41.4111ZM21.6133 38.6846L21.6133 36.7646L21.6136 36.7646L21.6133 38.6846ZM18.8916 38.6846L18.8916 40.6045L16.9716 40.6045L16.9716 38.6846L18.8916 38.6846ZM18.8916 36.8672L16.9716 36.8672L16.9716 34.9472L18.8916 34.9472L18.8916 36.8672ZM22.5215 34.1406L24.4415 34.1405L24.4415 34.1406L22.5215 34.1406ZM18.8916 31.415L18.8916 33.335L16.9716 33.335L16.9716 31.415L18.8916 31.415ZM18.8916 23.2656L16.9716 23.2656L16.9716 21.9079L18.2517 21.4554L18.8916 23.2656ZM26.1611 12.9814L28.0805 12.9313L28.0811 12.9564L28.0811 12.9814L26.1611 12.9814ZM26.1465 12.4209L28.064 12.3237L28.0652 12.3472L28.0658 12.3707L26.1465 12.4209ZM15.2559 2.07715L15.2558 0.157172L15.2559 0.157172L15.2559 2.07715ZM11.7617 12.9814L9.84219 13.0229L9.84174 13.002L9.84174 12.9811L11.7617 12.9814ZM15.2559 9.4873L15.2556 7.56733L15.2765 7.56733L15.2974 7.56778L15.2559 9.4873ZM15.4365 9.49121L15.478 7.57168L15.506 7.57229L15.5339 7.57371L15.4365 9.49121ZM18.751 12.9814L20.671 12.9811L20.671 12.9814L18.751 12.9814ZM15.2559 16.4766L15.2559 18.3965L15.2556 18.3965L15.2559 16.4766ZM11.7656 13.1621L9.84812 13.2595L9.8467 13.2316L9.8461 13.2036L11.7656 13.1621ZM4.35156 12.9814L6.27154 12.9814C6.27154 16.8895 8.76877 20.2186 12.2612 21.4535L11.6211 23.2637L10.981 25.0738C6.00384 23.3139 2.43159 18.5685 2.43159 12.9814L4.35156 12.9814ZM11.6211 23.2637L13.5411 23.2637L13.5411 44.1387L11.6211 44.1387L9.70112 44.1387L9.70112 23.2637L11.6211 23.2637ZM11.6211 44.1387L13.5411 44.1387C13.5411 45.0851 14.309 45.8535 15.2568 45.8535L15.2568 47.7734L15.2568 49.6934C12.1896 49.6934 9.70112 47.2072 9.70112 44.1387L11.6211 44.1387ZM15.2568 47.7734L15.2566 45.8535C16.204 45.8534 16.9716 45.0855 16.9716 44.1387L18.8916 44.1387L20.8116 44.1387C20.8116 47.2066 18.3244 49.6931 15.257 49.6934L15.2568 47.7734ZM18.8916 44.1387L16.9716 44.1387L16.9716 44.1367L18.8916 44.1367L20.8116 44.1367L20.8116 44.1387L18.8916 44.1387ZM18.8916 44.1367L18.8916 42.2167L21.6133 42.2167L21.6133 44.1367L21.6133 46.0567L18.8916 46.0567L18.8916 44.1367ZM21.6133 44.1367L21.613 42.2167C22.0582 42.2167 22.4188 41.856 22.4189 41.4109L24.3389 41.4111L26.2588 41.4114C26.2585 43.9769 24.179 46.0563 21.6136 46.0567L21.6133 44.1367ZM24.3389 41.4111L22.4189 41.4111C22.4189 40.9654 22.0577 40.6046 21.613 40.6045L21.6133 38.6846L21.6136 36.7646C24.1798 36.765 26.2588 38.8459 26.2588 41.4111L24.3389 41.4111ZM21.6133 38.6846L21.6133 40.6045L18.8916 40.6045L18.8916 38.6846L18.8916 36.7646L21.6133 36.7646L21.6133 38.6846ZM18.8916 38.6846L16.9716 38.6846L16.9716 36.8672L18.8916 36.8672L20.8116 36.8672L20.8116 38.6846L18.8916 38.6846ZM18.8916 36.8672L18.8916 34.9472L19.7949 34.9472L19.7949 36.8672L19.7949 38.7872L18.8916 38.7872L18.8916 36.8672ZM19.7949 36.8672L19.7949 34.9472C20.2402 34.9472 20.6015 34.5859 20.6015 34.1406L22.5215 34.1406L24.4415 34.1406C24.4415 36.7066 22.3609 38.7872 19.7949 38.7872L19.7949 36.8672ZM22.5215 34.1406L20.6015 34.1408C20.6015 33.6962 20.2409 33.335 19.7949 33.335L19.7949 31.415L19.7949 29.4951C22.3601 29.4951 24.4413 31.5739 24.4415 34.1405L22.5215 34.1406ZM19.7949 31.415L19.7949 33.335L18.8916 33.335L18.8916 31.415L18.8916 29.4951L19.7949 29.4951L19.7949 31.415ZM18.8916 31.415L16.9716 31.415L16.9716 23.2656L18.8916 23.2656L20.8116 23.2656L20.8116 31.415L18.8916 31.415ZM18.8916 23.2656L18.2517 21.4554C21.7438 20.221 24.2412 16.8903 24.2412 12.9814L26.1611 12.9814L28.0811 12.9814C28.0811 18.5683 24.5098 23.316 19.5315 25.0758L18.8916 23.2656ZM26.1611 12.9814L24.2418 13.0316L24.2272 12.4711L26.1465 12.4209L28.0658 12.3707L28.0805 12.9313L26.1611 12.9814ZM26.1465 12.4209L24.229 12.5181C23.9884 7.7724 20.0623 3.99712 15.2559 3.99712L15.2559 2.07715L15.2559 0.157172C22.118 0.157172 27.7204 5.54594 28.064 12.3237L26.1465 12.4209ZM15.2559 2.07715L15.2559 3.99712C10.2942 3.99735 6.27183 8.01974 6.27154 12.9816L4.35156 12.9814L2.43159 12.9813C2.432 5.899 8.17335 0.15749 15.2558 0.157172L15.2559 2.07715ZM11.7617 12.9814L9.84174 12.9811C9.84228 9.99127 12.2655 7.56775 15.2556 7.56733L15.2559 9.4873L15.2561 11.4073C14.3865 11.4074 13.6819 12.112 13.6817 12.9818L11.7617 12.9814ZM15.2559 9.4873L15.2974 7.56778L15.478 7.57168L15.4365 9.49121L15.395 11.4107L15.2144 11.4068L15.2559 9.4873ZM15.4365 9.49121L15.5339 7.57371C18.3967 7.71909 20.6704 10.0845 20.671 12.9811L18.751 12.9814L16.831 12.9818C16.8308 12.1393 16.169 11.4509 15.3391 11.4087L15.4365 9.49121ZM18.751 12.9814L20.671 12.9814C20.671 15.9721 18.2465 18.3965 15.2559 18.3965L15.2559 16.4766L15.2559 14.5566C16.1258 14.5566 16.831 13.8513 16.831 12.9814L18.751 12.9814ZM15.2559 16.4766L15.2556 18.3965C12.3588 18.3961 9.9935 16.1222 9.84812 13.2595L11.7656 13.1621L13.6831 13.0647C13.7253 13.8947 14.4137 14.5565 15.2561 14.5566L15.2559 16.4766ZM11.7656 13.1621L9.8461 13.2036L9.84219 13.0229L11.7617 12.9814L13.6812 12.9399L13.6852 13.1206L11.7656 13.1621Z" fill="white" fill-opacity="0.25" mask="url(#path-1-inside-1_2529_6314)"/>
<path d="M4.40015 4.80078L5.12044 8.28254L8.6001 9.00073L5.12044 9.71893L4.40015 13.2007L3.68196 9.71893L0.200195 9.00073L3.68196 8.28254L4.40015 4.80078Z" fill="white"/>
<path d="M23.5994 39.6006L24.3197 43.0823L27.7993 43.8005L24.3197 44.5187L23.5994 48.0005L22.8812 44.5187L19.3994 43.8005L22.8812 43.0823L23.5994 39.6006Z" fill="white"/>
<path d="M24.7996 0L25.5199 3.48176L28.9995 4.19995L25.5199 4.91815L24.7996 8.39991L24.0814 4.91815L20.5996 4.19995L24.0814 3.48176L24.7996 0Z" fill="white"/>
<defs>
<filter id="filter0_i_2529_6314" x="4.35156" y="-7.52274" width="21.8096" height="55.2962" filterUnits="userSpaceOnUse" color-interpolation-filters="sRGB">
<feFlood flood-opacity="0" result="BackgroundImageFix"/>
<feBlend mode="normal" in="SourceGraphic" in2="BackgroundImageFix" result="shape"/>
<feColorMatrix in="SourceAlpha" type="matrix" values="0 0 0 0 0 0 0 0 0 0 0 0 0 0 0 0 0 0 127 0" result="hardAlpha"/>
<feOffset dy="-9.59989"/>
<feGaussianBlur stdDeviation="4.79995"/>
<feComposite in2="hardAlpha" operator="arithmetic" k2="-1" k3="1"/>
<feColorMatrix type="matrix" values="0 0 0 0 1 0 0 0 0 1 0 0 0 0 1 0 0 0 0.5 0"/>
<feBlend mode="normal" in2="shape" result="effect1_innerShadow_2529_6314"/>
</filter>
</defs>
</svg>
