<svg width="48" height="42" viewBox="0 0 48 42" fill="none" xmlns="http://www.w3.org/2000/svg">
<path d="M27.4476 41.1732C27.2466 41.1732 27.1099 41.1732 26.9813 41.1732C20.323 41.1732 13.6648 41.1732 6.99854 41.1732C5.3179 41.1732 3.98304 40.2082 3.55685 38.6804C3.46036 38.3507 3.42015 37.9969 3.42015 37.6511C3.41211 31.5156 3.41211 25.38 3.41211 19.2364C3.41211 19.1319 3.42015 19.0274 3.42819 18.8907C3.67747 18.8585 3.91067 18.8344 4.14387 18.8103C5.00429 18.7218 5.81647 18.4564 6.59648 18.0785C6.7573 17.9981 7.01463 18.0061 7.17545 18.0785C9.2662 19.1158 11.3489 19.1158 13.4396 18.0704C13.6005 17.99 13.8658 17.982 14.0186 18.0624C16.1094 19.1078 18.1921 19.1158 20.2667 18.0624C20.4919 17.9498 20.6608 17.9337 20.894 18.0544C22.9606 19.1158 25.0352 19.1158 27.1019 18.0704C27.3351 17.9498 27.52 17.9337 27.7693 18.0624C29.8198 19.1158 31.8865 19.1239 33.937 18.0865C34.1863 17.9579 34.3793 17.9498 34.6366 18.0785C36.6711 19.1078 38.7296 19.1158 40.7721 18.0946C41.0375 17.9579 41.2385 17.9498 41.5119 18.0946C42.3482 18.5529 43.2569 18.77 44.1977 18.8424C44.3184 18.8505 44.4309 18.8665 44.5998 18.8746C44.5998 19.0515 44.5998 19.2043 44.5998 19.3651C44.5998 25.3961 44.5998 31.4271 44.5998 37.4581C44.5998 39.7338 43.1604 41.1652 40.8767 41.1732C39.9921 41.1732 39.1076 41.1491 38.223 41.1812C37.8129 41.1973 37.7084 41.0687 37.7084 40.6666C37.7245 35.3995 37.7164 30.1324 37.7164 24.8654C37.7164 24.7689 37.7164 24.6804 37.7164 24.5839C37.7164 24.013 37.7164 24.013 37.1535 24.013C34.0978 24.013 31.0421 24.013 27.9864 24.013C27.4316 24.013 27.4316 24.013 27.4316 24.5518C27.4316 29.8832 27.4316 35.2146 27.4316 40.554C27.4476 40.739 27.4476 40.9239 27.4476 41.1732ZM10.2874 29.1434C10.2874 30.7114 10.2955 32.2795 10.2794 33.8475C10.2794 34.1933 10.3679 34.3059 10.7297 34.3059C13.8498 34.2898 16.9778 34.2898 20.0979 34.3059C20.4597 34.3059 20.5723 34.2094 20.5723 33.8395C20.5562 30.7195 20.5562 27.5914 20.5723 24.4713C20.5723 24.1256 20.4839 24.013 20.122 24.013C16.9859 24.0291 13.8498 24.0291 10.7136 24.013C10.3839 24.013 10.2714 24.1014 10.2794 24.4392C10.2955 26.0072 10.2874 27.5753 10.2874 29.1434Z" fill="white"/>
<path d="M32.6174 5.1947C32.738 5.70935 32.8506 6.19987 32.9793 6.69039C33.3974 8.36299 33.8236 10.0436 34.2417 11.7162C34.5151 12.7938 33.7834 14.2653 32.6415 14.9408C30.3417 16.3078 27.4709 14.7156 27.4307 12.0298C27.3986 9.89888 27.4147 7.76793 27.4307 5.63698C27.4307 5.25903 27.3423 5.13037 26.9483 5.13841C24.9781 5.1545 23.008 5.14645 21.0379 5.14645C20.9092 5.14645 20.7725 5.14645 20.6036 5.14645C20.5956 5.34749 20.5795 5.50027 20.5795 5.6611C20.5795 7.76793 20.5956 9.86672 20.5715 11.9735C20.5554 13.9598 18.9873 15.4876 17.0574 15.4474C15.3125 15.4072 13.8168 14.0402 13.7283 12.3032C13.7042 11.8208 13.865 11.3302 13.9856 10.8478C14.4199 9.07866 14.8621 7.31761 15.3044 5.54852C15.3285 5.44398 15.3446 5.33944 15.3687 5.18666C15.2079 5.17058 15.0712 5.1545 14.9345 5.1545C13.5112 5.1545 12.0959 5.16253 10.6726 5.14645C10.3751 5.14645 10.2223 5.25099 10.0936 5.50831C9.07238 7.58298 8.02701 9.65764 6.99771 11.7323C6.90926 11.9173 6.84493 12.1344 6.82885 12.3434C6.65998 14.0965 5.18037 15.4474 3.41128 15.4474C1.65827 15.4474 0.146501 14.0884 0.00175682 12.3354C-0.0143258 12.1344 0.0821701 11.8851 0.20279 11.7243C1.76281 9.62547 3.33087 7.54277 4.89089 5.44398C5.01955 5.26707 5.09192 5.00975 5.108 4.79264C5.15625 4.16541 5.09996 3.53015 5.18037 2.91096C5.41357 1.24641 6.79668 0.0562893 8.46928 0C8.57382 0 8.68639 0 8.79093 0C18.9311 0 29.0792 0 39.2193 0C40.9563 0 42.2992 0.908671 42.7093 2.46869C42.8781 3.08787 42.8781 3.77139 42.8701 4.41469C42.862 4.94542 43.0068 5.35553 43.3284 5.76564C44.8402 7.7438 46.3359 9.73806 47.8155 11.7484C47.9522 11.9253 48.0246 12.2228 47.9924 12.4399C47.7512 14.2251 46.2555 15.5037 44.4944 15.4474C42.7414 15.3992 41.3503 14.0723 41.1653 12.2872C41.1493 12.1022 41.093 11.9173 41.0125 11.7564C39.9752 9.66568 38.9298 7.58298 37.8925 5.50027C37.796 5.29924 37.7076 5.14645 37.4261 5.14645C35.9224 5.16253 34.4267 5.1545 32.923 5.1545C32.8426 5.14645 32.7541 5.17058 32.6174 5.1947Z" fill="white"/>
</svg>
