<svg width="170" height="75" viewBox="0 0 170 75" fill="none" xmlns="http://www.w3.org/2000/svg">
<mask id="path-1-inside-1_2563_9623" fill="white">
<path d="M80.043 2.62012C82.4246 -0.872903 87.575 -0.873517 89.957 2.61914L97.6963 13.9697C97.9245 14.3045 98.113 14.6493 98.2646 15H150C161.046 15 170 23.9543 170 35V55C170 66.0457 161.046 75 150 75H20C8.95431 75 3.2215e-07 66.0457 0 55V35C0 23.9543 8.95431 15 20 15H71.7363C71.888 14.6495 72.0756 14.3043 72.3037 13.9697L80.043 2.62012Z"/>
</mask>
<path d="M80.043 2.62012C82.4246 -0.872903 87.575 -0.873517 89.957 2.61914L97.6963 13.9697C97.9245 14.3045 98.113 14.6493 98.2646 15H150C161.046 15 170 23.9543 170 35V55C170 66.0457 161.046 75 150 75H20C8.95431 75 3.2215e-07 66.0457 0 55V35C0 23.9543 8.95431 15 20 15H71.7363C71.888 14.6495 72.0756 14.3043 72.3037 13.9697L80.043 2.62012Z" fill="url(#paint0_linear_2563_9623)" fill-opacity="0.15"/>
<path d="M80.043 2.62012L81.6954 3.74688L81.6954 3.74681L80.043 2.62012ZM89.957 2.61914L91.6095 1.49244L91.6093 1.49226L89.957 2.61914ZM97.6963 13.9697L99.3488 12.8431L99.3487 12.843L97.6963 13.9697ZM98.2646 15L96.429 15.794L96.9507 17H98.2646V15ZM170 35H172H170ZM150 75V77V75ZM0 55H-2H0ZM20 15V13V15ZM71.7363 15V17H73.0502L73.5719 15.7941L71.7363 15ZM72.3037 13.9697L70.6513 12.843L70.6512 12.8432L72.3037 13.9697ZM80.043 2.62012L81.6954 3.74681C83.2833 1.41792 86.7169 1.4178 88.3047 3.74602L89.957 2.61914L91.6093 1.49226C88.4332 -3.16483 81.5659 -3.16373 78.3905 1.49342L80.043 2.62012ZM89.957 2.61914L88.3046 3.74584L96.0438 15.0964L97.6963 13.9697L99.3487 12.843L91.6095 1.49244L89.957 2.61914ZM97.6963 13.9697L96.0438 15.0963C96.2002 15.3258 96.3275 15.5593 96.429 15.794L98.2646 15L100.1 14.206C99.8984 13.7394 99.6488 13.2831 99.3488 12.8431L97.6963 13.9697ZM98.2646 15V17H150V15V13H98.2646V15ZM150 15V17C159.941 17 168 25.0589 168 35H170H172C172 22.8497 162.15 13 150 13V15ZM170 35H168V55H170H172V35H170ZM170 55H168C168 64.9411 159.941 73 150 73V75V77C162.15 77 172 67.1503 172 55H170ZM150 75V73H20V75V77H150V75ZM20 75V73C10.0589 73 2 64.9411 2 55H0H-2C-2 67.1503 7.84974 77 20 77V75ZM0 55H2V35H0H-2V55H0ZM0 35H2C2 25.0589 10.0589 17 20 17V15V13C7.84974 13 -2 22.8497 -2 35H0ZM20 15V17H71.7363V15V13H20V15ZM71.7363 15L73.5719 15.7941C73.6746 15.5567 73.8015 15.3233 73.9563 15.0963L72.3037 13.9697L70.6512 12.8432C70.3497 13.2854 70.1013 13.7422 69.9007 14.2059L71.7363 15ZM72.3037 13.9697L73.9561 15.0965L81.6954 3.74688L80.043 2.62012L78.3906 1.49336L70.6513 12.843L72.3037 13.9697Z" fill="white" fill-opacity="0.05" mask="url(#path-1-inside-1_2563_9623)"/>
<defs>
<linearGradient id="paint0_linear_2563_9623" x1="85" y1="0" x2="85" y2="75" gradientUnits="userSpaceOnUse">
<stop stop-color="white"/>
<stop offset="1" stop-color="white" stop-opacity="0.25"/>
</linearGradient>
</defs>
</svg>
