<svg width="48" height="47" viewBox="0 0 48 47" fill="none" xmlns="http://www.w3.org/2000/svg">
<path d="M17.9837 39.5107C17.9837 38.625 17.9687 37.7318 17.9912 36.8461C17.9987 36.5684 17.9011 36.4333 17.6609 36.3057C13.7129 34.204 11.116 31.0216 10.2453 26.6081C9.44221 22.5099 10.3654 18.7495 12.9174 15.4394C15.1916 12.4896 18.2089 10.6582 21.9016 10.1478C27.0806 9.43474 31.4339 11.116 34.8039 15.1167C37.2733 18.0439 38.3091 21.4966 37.9338 25.3096C37.5285 29.4979 35.4794 32.7779 32.0944 35.2398C31.5615 35.6302 30.9835 35.9679 30.3981 36.2682C30.0753 36.4333 29.9928 36.6284 29.9928 36.9587C30.0078 38.5875 30.0003 40.2087 30.0003 41.8375C29.9928 44.2619 28.2665 46.0032 25.8496 46.0258C24.6112 46.0333 23.3728 46.0333 22.1343 46.0258C19.71 46.0032 17.9837 44.2619 17.9837 41.8375C17.9762 41.0644 17.9837 40.2913 17.9837 39.5107ZM25.9772 41.9876C25.9772 41.8075 25.9772 41.6498 25.9772 41.4922C25.9772 39.0903 25.9847 36.6885 25.9697 34.2866C25.9697 33.9864 26.0598 33.8288 26.345 33.7462C26.7053 33.6411 27.0505 33.506 27.4033 33.3784C32.0268 31.6971 34.7439 26.9009 33.8057 22.0746C32.7474 16.6479 27.5159 13.1276 22.0743 14.1709C14.5911 15.6121 11.4237 24.6791 16.3775 30.4736C17.7735 32.1024 19.5524 33.1232 21.5789 33.7312C21.9242 33.8363 22.0142 34.0014 22.0067 34.3467C21.9917 36.7335 21.9992 39.1204 21.9992 41.5147C21.9992 41.6724 22.0142 41.83 22.0217 41.9876C23.3577 41.9876 24.6412 41.9876 25.9772 41.9876Z" fill="white"/>
<path d="M22.0078 5.95964C22.0078 3.95558 22.0078 1.98905 22.0078 0C23.3363 0 24.6423 0 25.9708 0C25.9708 1.98905 25.9708 3.96309 25.9708 5.95964C24.6573 5.95964 23.3513 5.95964 22.0078 5.95964Z" fill="white"/>
<path d="M5.95951 25.978C3.97051 25.978 2.00402 25.978 0 25.978C0 24.6645 0 23.3585 0 22.0225C1.97399 22.0225 3.95549 22.0225 5.95951 22.0225C5.95951 23.3435 5.95951 24.6495 5.95951 25.978Z" fill="white"/>
<path d="M47.9999 22.0303C47.9999 23.3513 47.9999 24.6498 47.9999 25.9784C46.0109 25.9784 44.0294 25.9784 42.0254 25.9784C42.0254 24.6648 42.0254 23.3663 42.0254 22.0303C43.9994 22.0303 45.9809 22.0303 47.9999 22.0303Z" fill="white"/>
<path d="M5.71973 8.40004C6.59789 7.52186 7.5286 6.59113 8.42177 5.69043C9.79531 7.07151 11.1989 8.46759 12.5874 9.86368C11.6867 10.7569 10.756 11.6726 9.85535 12.5658C8.49683 11.1997 7.10077 9.79613 5.71973 8.40004Z" fill="white"/>
<path d="M38.1295 12.6035C37.2063 11.6803 36.2831 10.7721 35.3975 9.88639C36.7935 8.49781 38.1896 7.10172 39.5556 5.74316C40.4338 6.62135 41.3645 7.55207 42.2652 8.45278C40.9141 9.80383 39.5181 11.2074 38.1295 12.6035Z" fill="white"/>
<path d="M5.7041 39.526C7.05512 38.1749 8.45118 36.7788 9.82472 35.4053C10.7329 36.3135 11.6636 37.2442 12.5793 38.1599C11.2058 39.5335 9.80971 40.9296 8.44367 42.2956C7.5505 41.3874 6.6273 40.4567 5.7041 39.526Z" fill="white"/>
<path d="M38.1589 35.4277C39.5325 36.8013 40.921 38.1974 42.3771 39.646C42.0844 39.9162 41.7617 40.209 41.4539 40.5092C40.891 41.0571 40.3356 41.6201 39.7877 42.1755C39.6451 42.3181 39.54 42.3857 39.3673 42.2055C38.0614 40.8845 36.7404 39.571 35.4269 38.2499C35.4044 38.2274 35.3893 38.1899 35.3818 38.1824C36.3125 37.2592 37.2508 36.3284 38.1589 35.4277Z" fill="white"/>
</svg>
