<svg width="29" height="25" viewBox="0 0 29 25" fill="none" xmlns="http://www.w3.org/2000/svg">
<path d="M9.93321 12.9096C10.0246 13.4579 10.0891 13.9739 10.2127 14.4738C10.245 14.6028 10.4492 14.7103 10.5943 14.7909C10.6803 14.8393 10.804 14.8071 10.9115 14.8071C15.0073 14.8071 19.0977 14.8124 23.1936 14.8017C23.9192 14.8017 24.5427 14.9952 24.9727 15.6079C25.3974 16.2046 25.4619 16.855 25.1609 17.5161C24.8652 18.1665 24.3438 18.5427 23.6236 18.618C23.4838 18.6341 23.3387 18.6395 23.1936 18.6395C19.0924 18.6395 14.9912 18.6341 10.8846 18.6449C9.5032 18.6502 8.32068 18.2041 7.39616 17.1613C6.7189 16.4035 6.45014 15.4789 6.29964 14.4953C5.98788 12.4528 5.64388 10.4102 5.316 8.37306C5.08487 6.94328 4.84836 5.50813 4.62798 4.07836C4.60111 3.89023 4.53661 3.82573 4.3431 3.82573C3.55296 3.83648 2.7682 3.8311 1.97806 3.8311C0.86004 3.82573 0.0054 2.99259 2.49032e-05 1.92294C-0.00535019 0.853297 0.86004 0.00403132 1.96731 0.00403132C3.36484 -0.00134377 4.76236 -0.00134377 6.15989 0.00403132C7.17041 0.00403132 7.93367 0.632918 8.10567 1.62194C8.1433 1.84231 8.21855 1.92294 8.4443 1.91757C9.62683 1.90682 25.693 1.89069 26.4348 1.93907C27.5958 2.01432 28.3805 3.05709 28.1548 4.19661C27.8 6.01339 27.4506 7.83555 27.0583 9.64696C26.6605 11.4745 24.9405 12.8881 23.0699 12.9043C19.4149 12.9311 15.7598 12.915 12.1047 12.915C11.4866 12.915 10.8685 12.915 10.2503 12.915C10.159 12.9096 10.0622 12.9096 9.93321 12.9096Z" fill="white"/>
<path d="M22.0211 19.5962C23.3756 19.6231 24.4076 20.7089 24.3808 22.0741C24.3485 23.3534 23.252 24.4015 21.9566 24.38C20.6128 24.3585 19.57 23.262 19.6023 21.8968C19.6238 20.6175 20.7257 19.5693 22.0211 19.5962Z" fill="white"/>
<path d="M11.4759 24.3751C10.159 24.3751 9.08398 23.3001 9.08398 21.9832C9.08398 20.6663 10.159 19.5967 11.4759 19.5967C12.7982 19.5967 13.8732 20.6663 13.8678 21.9886C13.8678 23.3001 12.7928 24.3751 11.4759 24.3751Z" fill="white"/>
</svg>
