<svg width="23" height="23" viewBox="0 0 23 23" fill="none" xmlns="http://www.w3.org/2000/svg">
<g filter="url(#filter0_d_2517_4149)">
<path d="M15.9094 15.5332L16.7105 14.732L13.5727 11.5938L12.7715 12.3949L15.9094 15.5332Z" fill="#66E7FF"/>
<path d="M16.7101 14.7314L17.5113 13.9302L14.3734 10.792L13.5723 11.5932L16.7101 14.7314Z" fill="#0047FF"/>
<path d="M12.7856 12.4071L13.5883 11.6082L11.7104 9.73033L11.576 9.59593L11.4416 9.46153L8.98509 7.00499L8.85069 6.87059L4.34827 2.36816C4.3053 2.41089 4.27361 2.46361 4.25601 2.5216C4.23842 2.57959 4.23549 2.64103 4.24747 2.70043L4.93441 6.08658C4.96897 6.26751 5.06857 6.42952 5.21441 6.54205L7.09228 7.99806L7.24535 8.11379L7.39842 8.23326L10.5195 10.6525L10.6688 10.7682L10.8182 10.8802L12.7856 12.4071Z" fill="white"/>
<path d="M18.2068 13.3056C18.1375 13.2363 18.0552 13.1813 17.9646 13.1437C17.874 13.1062 17.7769 13.0869 17.6789 13.0869C17.5808 13.0869 17.4838 13.1062 17.3932 13.1437C17.3026 13.1813 17.2203 13.2363 17.151 13.3056L15.2843 15.1723C15.1446 15.3123 15.0663 15.5021 15.0664 15.6999C15.0665 15.8978 15.1452 16.0874 15.2851 16.2273C15.4249 16.3672 15.6146 16.4458 15.8124 16.446C16.0102 16.4461 16.2 16.3677 16.3401 16.2281L18.2068 14.3614C18.2761 14.2921 18.3312 14.2098 18.3687 14.1192C18.4062 14.0286 18.4256 13.9315 18.4256 13.8335C18.4256 13.7354 18.4062 13.6384 18.3687 13.5478C18.3312 13.4572 18.2761 13.3749 18.2068 13.3056Z" fill="url(#paint0_linear_2517_4149)"/>
<path d="M13.5877 11.6092L14.3866 10.8066L12.632 8.54042L12.5125 8.38735L12.393 8.23428L10.5189 5.81507L10.4032 5.66574L10.2911 5.52014L8.52154 3.23532C8.40902 3.08949 8.247 2.98989 8.06607 2.95532L4.67992 2.26839C4.62052 2.257 4.55924 2.26023 4.50135 2.27779C4.44347 2.29535 4.39073 2.32672 4.34766 2.36919L8.85008 6.87161L8.98448 7.00601L11.441 9.46255L11.5754 9.59695L11.7098 9.73136L13.5877 11.6092Z" fill="url(#paint1_linear_2517_4149)"/>
<path d="M15.5927 9.19915C15.5234 9.12982 15.4411 9.07482 15.3505 9.0373C15.2599 8.99978 15.1628 8.98047 15.0648 8.98047C14.9668 8.98047 14.8697 8.99978 14.7791 9.0373C14.6885 9.07482 14.6062 9.12982 14.5369 9.19915L11.1769 12.5592C11.0372 12.6992 10.9588 12.889 10.959 13.0868C10.9591 13.2847 11.0378 13.4743 11.1776 13.6142C11.3175 13.7541 11.5072 13.8327 11.705 13.8329C11.9028 13.833 12.0926 13.7546 12.2327 13.615L15.5927 10.2549C15.6621 10.1856 15.7171 10.1033 15.7546 10.0128C15.7922 9.92218 15.8115 9.82509 15.8115 9.72705C15.8115 9.629 15.7922 9.53191 15.7546 9.44133C15.7171 9.35075 15.6621 9.26846 15.5927 9.19915Z" fill="url(#paint2_linear_2517_4149)"/>
</g>
<g filter="url(#filter1_d_2517_4149)">
<path d="M15.7473 2.26554L12.3622 2.95472C12.181 2.98768 12.0184 3.08647 11.9056 3.2321L6.03906 10.8052L6.84024 11.6064L16.078 2.36895C16.0355 2.32603 15.9832 2.29416 15.9255 2.27614C15.8678 2.25811 15.8067 2.25447 15.7473 2.26554Z" fill="url(#paint3_linear_2517_4149)"/>
<path d="M7.64102 12.4076L15.2141 6.54104C15.3598 6.42828 15.4586 6.26566 15.4915 6.08445L16.1807 2.69943C16.1917 2.64004 16.188 2.57886 16.17 2.52121C16.152 2.46356 16.1201 2.41119 16.0773 2.36865L6.83985 11.6065L7.64102 12.4076Z" fill="white"/>
<path d="M7.6543 12.3935L6.85312 11.5923L3.71524 14.7306L4.51642 15.5317L7.6543 12.3935Z" fill="#FF59EE"/>
<path d="M6.85352 11.5917L6.05234 10.7905L2.91446 13.9288L3.71563 14.73L6.85352 11.5917Z" fill="#AB41FF"/>
<path d="M2.00022 13.8343C2.00008 13.9324 2.01934 14.0295 2.05688 14.1201C2.09443 14.2107 2.14952 14.293 2.219 14.3622L4.08567 16.2289C4.22575 16.3685 4.41553 16.4469 4.61335 16.4468C4.81116 16.4466 5.00084 16.368 5.14071 16.2281C5.28059 16.0882 5.35923 15.8986 5.35937 15.7008C5.35952 15.5029 5.28114 15.3131 5.14146 15.1731L3.27479 13.3064C3.17037 13.202 3.03734 13.1309 2.89252 13.1021C2.7477 13.0733 2.59759 13.0881 2.46118 13.1446C2.32476 13.2011 2.20816 13.2968 2.12611 13.4196C2.04406 13.5423 2.00025 13.6866 2.00022 13.8343Z" fill="url(#paint4_linear_2517_4149)"/>
<path d="M4.61235 9.7267C4.61221 9.82477 4.63146 9.9219 4.66901 10.0125C4.70656 10.1031 4.76165 10.1854 4.83112 10.2546L8.19114 13.6146C8.33122 13.7543 8.521 13.8327 8.71882 13.8325C8.91663 13.8324 9.10631 13.7537 9.24618 13.6139C9.38606 13.474 9.4647 13.2843 9.46484 13.0865C9.46498 12.8887 9.38661 12.6989 9.24693 12.5588L5.88692 9.1988C5.78249 9.09441 5.64946 9.02332 5.50465 8.99452C5.35983 8.96573 5.20972 8.98051 5.0733 9.03701C4.93689 9.09351 4.82029 9.18919 4.73824 9.31195C4.65619 9.43471 4.61238 9.57904 4.61235 9.7267Z" fill="url(#paint5_linear_2517_4149)"/>
</g>
<path d="M4.8558 4.78223L5.14158 6.16363L6.52215 6.44857L5.14158 6.73352L4.8558 8.11492L4.57086 6.73352L3.18945 6.44858L4.57086 6.16363L4.8558 4.78223Z" fill="white"/>
<path d="M15.3777 13.7559L15.5819 14.7426L16.568 14.9461L15.5819 15.1496L15.3777 16.1364L15.1742 15.1496L14.1875 14.9461L15.1742 14.7426L15.3777 13.7559Z" fill="white"/>
<path d="M12.284 2L12.4881 2.98672L13.4742 3.19025L12.4881 3.39378L12.284 4.3805L12.0805 3.39378L11.0938 3.19025L12.0805 2.98672L12.284 2Z" fill="white"/>
<defs>
<filter id="filter0_d_2517_4149" x="0.240234" y="0.261719" width="22.1855" height="22.1841" filterUnits="userSpaceOnUse" color-interpolation-filters="sRGB">
<feFlood flood-opacity="0" result="BackgroundImageFix"/>
<feColorMatrix in="SourceAlpha" type="matrix" values="0 0 0 0 0 0 0 0 0 0 0 0 0 0 0 0 0 0 127 0" result="hardAlpha"/>
<feOffset dy="2"/>
<feGaussianBlur stdDeviation="2"/>
<feComposite in2="hardAlpha" operator="out"/>
<feColorMatrix type="matrix" values="0 0 0 0 0 0 0 0 0 0 0 0 0 0 0 0 0 0 0.5 0"/>
<feBlend mode="normal" in2="BackgroundImageFix" result="effect1_dropShadow_2517_4149"/>
<feBlend mode="normal" in="SourceGraphic" in2="effect1_dropShadow_2517_4149" result="shape"/>
</filter>
<filter id="filter1_d_2517_4149" x="0" y="1.25928" width="18.1875" height="18.1875" filterUnits="userSpaceOnUse" color-interpolation-filters="sRGB">
<feFlood flood-opacity="0" result="BackgroundImageFix"/>
<feColorMatrix in="SourceAlpha" type="matrix" values="0 0 0 0 0 0 0 0 0 0 0 0 0 0 0 0 0 0 127 0" result="hardAlpha"/>
<feOffset dy="1"/>
<feGaussianBlur stdDeviation="1"/>
<feComposite in2="hardAlpha" operator="out"/>
<feColorMatrix type="matrix" values="0 0 0 0 0 0 0 0 0 0 0 0 0 0 0 0 0 0 0.5 0"/>
<feBlend mode="normal" in2="BackgroundImageFix" result="effect1_dropShadow_2517_4149"/>
<feBlend mode="normal" in="SourceGraphic" in2="effect1_dropShadow_2517_4149" result="shape"/>
</filter>
<linearGradient id="paint0_linear_2517_4149" x1="18.4256" y1="14.7798" x2="15.0929" y2="14.7798" gradientUnits="userSpaceOnUse">
<stop stop-color="#0047FF"/>
<stop offset="1" stop-color="#66E7FF"/>
</linearGradient>
<linearGradient id="paint1_linear_2517_4149" x1="4.34766" y1="6.93547" x2="14.3866" y2="6.93548" gradientUnits="userSpaceOnUse">
<stop stop-color="#66E7FF"/>
<stop offset="1" stop-color="white"/>
</linearGradient>
<linearGradient id="paint2_linear_2517_4149" x1="15.8062" y1="11.4474" x2="11.0452" y2="11.4474" gradientUnits="userSpaceOnUse">
<stop stop-color="#0047FF"/>
<stop offset="1" stop-color="#66E7FF"/>
</linearGradient>
<linearGradient id="paint3_linear_2517_4149" x1="11.0586" y1="2.25928" x2="11.0586" y2="11.6064" gradientUnits="userSpaceOnUse">
<stop stop-color="#F4B3FF"/>
<stop offset="1" stop-color="white"/>
</linearGradient>
<linearGradient id="paint4_linear_2517_4149" x1="5.36024" y1="14.7676" x2="2.00022" y2="14.7676" gradientUnits="userSpaceOnUse">
<stop stop-color="#FB4AFF"/>
<stop offset="1" stop-color="#644EFF"/>
</linearGradient>
<linearGradient id="paint5_linear_2517_4149" x1="9.46484" y1="11.4064" x2="4.61235" y2="11.4064" gradientUnits="userSpaceOnUse">
<stop stop-color="#FF59EE"/>
<stop offset="1" stop-color="#644EFD"/>
</linearGradient>
</defs>
</svg>
