<svg width="354" height="233" viewBox="0 0 354 233" fill="none" xmlns="http://www.w3.org/2000/svg">
<g filter="url(#filter0_dddii_2531_6819)">
<mask id="mask0_2531_6819" style="mask-type:alpha" maskUnits="userSpaceOnUse" x="95" y="10" width="177" height="117">
<path d="M120.118 70.6145V126.64C118.823 126.64 116.793 126.461 114.027 126.139C111.262 125.817 109.232 125.638 107.937 125.638C106.502 125.638 104.402 125.817 101.636 126.139C98.9062 126.461 96.8061 126.64 95.3359 126.64V10.5078H158.341C158.131 11.7608 157.921 13.2285 157.711 14.9111C157.501 16.5937 157.396 17.596 157.396 17.9182C157.711 20.281 158.026 22.6437 158.376 25.0064C148.715 24.1115 141.47 23.5387 136.604 23.1807C131.774 22.8943 126.278 22.7153 120.118 22.7153V59.123H137.619C143.36 59.123 150.08 58.586 157.746 57.4762C157.536 58.6934 157.326 60.1254 157.116 61.8437C156.906 63.5621 156.801 64.5644 156.801 64.8866C157.116 67.2494 157.431 69.6121 157.781 71.9749C154.176 71.6527 150.36 71.3305 146.335 71.0441C142.31 70.7577 139.404 70.5787 137.619 70.5787H120.118V70.6145Z" fill="url(#paint0_linear_2531_6819)"/>
<path d="M230.384 91.588H191.01C188.759 97.9611 187.187 102.458 186.33 105.113C183.042 114.354 180.684 121.4 179.255 126.321C178.219 126.215 177.04 126.074 175.754 125.897C174.467 125.72 173.038 125.649 171.43 125.649C170.108 125.649 168.643 125.72 167.071 125.897C165.464 126.074 164.249 126.18 163.355 126.321L211.555 10.5078C212.555 10.7202 213.555 10.8265 214.627 10.8265C215.699 10.8265 216.807 10.8265 217.95 10.8265H220.237C220.773 10.8265 221.416 10.8265 222.131 10.8265C223.167 10.614 223.881 10.5078 224.31 10.5078L271.187 126.64C268.936 126.64 267.186 126.569 265.935 126.463C260.004 125.932 256.931 125.649 256.717 125.649C254.466 125.649 252.715 125.72 251.465 125.826C245.533 126.357 242.461 126.64 242.175 126.64C238.245 113.08 234.35 101.395 230.384 91.588ZM195.691 81.2494H226.382L211.555 42.5504L195.691 81.2494Z" fill="url(#paint1_linear_2531_6819)"/>
</mask>
<g mask="url(#mask0_2531_6819)">
<rect width="210.687" height="109.496" transform="matrix(1 0 0 -1 77.0801 98.4355)" fill="white"/>
</g>
</g>
<g filter="url(#filter1_dddii_2531_6819)">
<path d="M89.87 175.222C92.9205 174.952 95.9601 174.668 98.9889 174.371C99.1511 174.371 99.3134 174.29 99.4432 174.128C99.6054 173.925 99.6703 173.722 99.6054 173.56C97.918 165.643 96.2197 157.645 94.5106 149.566C94.5106 149.485 94.4781 149.485 94.4457 149.485C94.3808 149.485 94.3483 149.485 94.3483 149.566C92.6609 157.888 90.9626 166.211 89.2535 174.533C89.221 174.695 89.221 174.898 89.3508 175.06C89.5131 175.181 89.7078 175.263 89.87 175.222ZM105.284 138.015C111.018 156.848 116.751 175.087 122.484 192.731C122.808 193.826 122.613 194.92 121.867 195.974C121.153 197.028 120.18 197.636 118.979 197.838C116.102 198.216 113.235 198.608 110.379 199.014C108.919 199.216 107.621 198.973 106.453 198.244C105.317 197.433 104.635 196.379 104.343 195.001C103.846 192.785 103.348 190.556 102.851 188.313C102.721 187.868 102.429 187.665 101.974 187.706C96.9769 188.3 91.9794 188.908 86.9819 189.529C86.3977 189.61 86.0732 189.894 86.0083 190.381C85.5324 192.812 85.0456 195.258 84.548 197.717C84.256 199.216 83.5096 200.554 82.3413 201.729C81.238 202.824 79.9399 203.472 78.4796 203.715C75.732 204.12 72.9845 204.526 70.2369 204.931C69.0362 205.134 68.0302 204.728 67.2839 203.796C66.5699 202.783 66.4077 201.648 66.7322 200.311C72.4653 179.721 78.1984 159.226 83.9314 138.825C84.3209 137.285 85.1321 136.029 86.3004 135.015C87.5011 134.043 88.8965 133.475 90.3893 133.435C93.2017 133.354 96.0142 133.259 98.8266 133.151C100.287 133.11 101.585 133.556 102.753 134.488C103.986 135.38 104.83 136.556 105.284 138.015Z" fill="url(#paint2_linear_2531_6819)"/>
</g>
<g filter="url(#filter2_dddii_2531_6819)">
<path d="M31.5469 196.89C35.0508 196.404 37.5814 195.35 39.1387 193.649C40.7933 191.988 41.6044 189.557 41.6044 186.479C41.6044 181.415 38.3925 179.187 31.9687 179.835C30.7791 179.97 29.5787 180.092 28.3674 180.2C27.8483 180.24 27.5888 180.605 27.5888 181.212C27.5888 186.128 27.5888 191.029 27.5888 195.917C27.5888 196.525 27.8159 196.89 28.3025 196.93C29.3407 197.052 30.4114 197.011 31.5469 196.89ZM27.5888 152.045C27.5888 156.312 27.5888 160.566 27.5888 164.806C27.5888 165.413 27.8483 165.697 28.3674 165.656C28.9947 165.602 29.6111 165.548 30.2167 165.494C36.9325 164.968 40.3067 162.173 40.3067 157.068C40.3067 152.288 37.3867 150.06 31.5469 150.384C30.4114 150.465 29.3407 150.587 28.3025 150.911C27.8159 151.032 27.5888 151.437 27.5888 152.045ZM42.9995 170.72C47.5092 170.963 51.1104 172.624 53.7708 175.622C56.4636 178.62 57.8262 182.266 57.8262 186.6C57.8262 193.973 55.6525 199.725 51.3375 203.857C47.0549 207.989 40.1769 210.785 30.6709 212.284C25.8044 213.013 20.7432 213.499 15.4873 213.742C14.0922 213.782 12.8918 213.296 11.9185 212.162C10.9776 210.987 10.5234 209.488 10.5234 207.746C10.5234 186.33 10.5234 164.86 10.5234 143.335C10.5234 141.674 10.9776 140.095 11.9185 138.717C12.8594 137.38 14.0273 136.611 15.4224 136.368C20.3863 135.638 25.1555 135.152 29.7949 134.95C47.3145 134.302 56.0743 140.297 56.0743 152.977C56.0743 157.271 54.8739 160.957 52.473 164.158C50.1371 167.277 46.9901 169.424 42.9995 170.477C42.9346 170.477 42.9346 170.518 42.9346 170.599C42.9346 170.68 42.9346 170.72 42.9995 170.72Z" fill="url(#paint3_linear_2531_6819)"/>
</g>
<g filter="url(#filter3_dddi_2531_6819)">
<path d="M282.322 189.266C283.652 189.428 284.82 190.077 285.826 191.335C286.832 192.512 287.318 193.891 287.318 195.352C287.318 197.002 287.318 198.638 287.318 200.261C287.318 201.722 286.832 202.899 285.826 203.873C284.82 204.765 283.652 205.13 282.322 204.928C271.053 203.25 259.785 201.587 248.516 199.937C247.153 199.734 245.985 199.044 245.012 197.949C244.006 196.813 243.52 195.555 243.52 194.216C243.52 175.903 243.52 157.266 243.52 138.304C243.52 136.924 244.006 135.707 245.012 134.652C245.985 133.638 247.153 133.11 248.516 133.151C251.176 133.232 253.837 133.313 256.497 133.394C257.827 133.435 258.995 134.043 260.001 135.139C260.974 136.275 261.461 137.533 261.461 138.993C261.461 154.791 261.461 170.439 261.461 185.939C261.461 186.466 261.753 186.791 262.272 186.831C268.955 187.643 275.639 188.454 282.322 189.266Z" fill="url(#paint4_linear_2531_6819)"/>
</g>
<g filter="url(#filter4_dddi_2531_6819)">
<path d="M338.39 136.208C339.721 136.249 340.889 136.941 341.894 138.123C342.9 139.427 343.387 140.852 343.387 142.482C343.387 144.139 343.387 145.796 343.387 147.452C343.387 149.082 342.9 150.467 341.894 151.608C340.889 152.749 339.721 153.319 338.39 153.238C332.14 152.83 325.889 152.436 319.638 152.056C319.119 152.015 318.859 152.26 318.859 152.789C318.859 156.347 318.859 159.919 318.859 163.504C318.859 164.115 319.119 164.482 319.638 164.523C325.305 164.957 330.972 165.405 336.639 165.867C337.969 165.989 339.137 166.682 340.142 167.945C341.148 169.248 341.635 170.715 341.635 172.345C341.635 173.621 341.635 174.911 341.635 176.215C341.635 177.845 341.148 179.23 340.142 180.33C339.137 181.43 337.969 181.959 336.639 181.797C330.972 181.226 325.305 180.656 319.638 180.085C319.119 180.004 318.859 180.248 318.859 180.778C318.859 185.015 318.859 189.238 318.859 193.448C318.859 194.059 319.119 194.426 319.638 194.507C325.889 195.295 332.14 196.069 338.39 196.83C339.721 196.993 340.889 197.726 341.894 199.03C342.9 200.374 343.387 201.881 343.387 203.47C343.387 205.127 343.387 206.77 343.387 208.4C343.387 210.03 342.9 211.374 341.894 212.433C340.889 213.452 339.721 213.9 338.39 213.696C327.706 212.094 317.021 210.464 306.336 208.807C304.974 208.604 303.806 207.83 302.832 206.567C301.826 205.304 301.34 203.919 301.34 202.411C301.34 181.878 301.34 161.223 301.34 140.445C301.34 138.938 301.826 137.593 302.832 136.493C303.806 135.434 304.974 134.864 306.336 134.904C317.021 135.339 327.706 135.774 338.39 136.208Z" fill="url(#paint5_linear_2531_6819)"/>
</g>
<g filter="url(#filter5_d_2531_6819)">
<path d="M149.145 127.81L144.608 132.347L162.377 150.119L166.914 145.582L149.145 127.81Z" fill="#66E7FF"/>
<path d="M144.612 132.354L140.075 136.891L157.844 154.663L162.381 150.126L144.612 132.354Z" fill="#0047FF"/>
<path d="M166.841 145.51L162.295 150.034L172.929 160.669L173.69 161.43L174.451 162.191L188.362 176.102L189.123 176.863L214.619 202.36C214.862 202.118 215.041 201.82 215.141 201.491C215.241 201.163 215.257 200.815 215.189 200.479L211.3 181.303C211.104 180.279 210.54 179.361 209.714 178.724L199.08 170.478L198.213 169.823L197.347 169.147L179.673 155.447L178.827 154.791L177.982 154.157L166.841 145.51Z" fill="white"/>
<path d="M136.135 140.427C136.528 140.819 136.994 141.131 137.506 141.343C138.019 141.556 138.569 141.665 139.124 141.665C139.679 141.665 140.229 141.556 140.742 141.343C141.255 141.131 141.721 140.819 142.114 140.427L152.684 129.856C153.475 129.062 153.919 127.988 153.918 126.868C153.917 125.747 153.472 124.673 152.68 123.881C151.888 123.089 150.814 122.644 149.693 122.643C148.573 122.642 147.499 123.086 146.705 123.877L136.135 134.448C135.742 134.84 135.431 135.306 135.218 135.819C135.006 136.332 134.896 136.882 134.896 137.437C134.896 137.992 135.006 138.542 135.218 139.055C135.431 139.568 135.742 140.034 136.135 140.427Z" fill="url(#paint6_linear_2531_6819)"/>
<path d="M162.294 150.036L157.77 154.582L167.706 167.415L168.382 168.281L169.059 169.148L179.671 182.848L180.327 183.694L180.961 184.518L190.982 197.457C191.619 198.283 192.536 198.847 193.561 199.043L212.736 202.933C213.072 202.997 213.419 202.979 213.747 202.88C214.075 202.78 214.373 202.603 214.617 202.362L189.121 176.865L188.36 176.104L174.45 162.193L173.689 161.432L172.927 160.67L162.294 150.036Z" fill="url(#paint7_linear_2531_6819)"/>
<path d="M150.933 163.681C151.325 164.073 151.791 164.385 152.304 164.597C152.817 164.81 153.367 164.919 153.922 164.919C154.477 164.919 155.027 164.81 155.54 164.597C156.053 164.385 156.519 164.073 156.911 163.681L175.938 144.653C176.729 143.86 177.173 142.785 177.172 141.665C177.171 140.544 176.726 139.47 175.934 138.678C175.142 137.886 174.068 137.441 172.947 137.44C171.827 137.439 170.753 137.883 169.959 138.674L150.933 157.702C150.54 158.094 150.228 158.56 150.016 159.073C149.803 159.586 149.694 160.136 149.694 160.691C149.694 161.246 149.803 161.796 150.016 162.309C150.228 162.822 150.54 163.288 150.933 163.681Z" fill="url(#paint8_linear_2531_6819)"/>
</g>
<g filter="url(#filter6_d_2531_6819)">
<path d="M150.07 202.944L169.239 199.041C170.265 198.855 171.186 198.295 171.824 197.47L205.045 154.584L200.508 150.047L148.197 202.358C148.438 202.601 148.735 202.782 149.061 202.884C149.388 202.986 149.734 203.007 150.07 202.944Z" fill="url(#paint9_linear_2531_6819)"/>
<path d="M195.971 145.518L153.087 178.74C152.262 179.379 151.703 180.3 151.516 181.326L147.614 200.495C147.551 200.831 147.572 201.178 147.674 201.504C147.776 201.831 147.956 202.127 148.199 202.368L200.508 150.055L195.971 145.518Z" fill="white"/>
<path d="M195.879 145.585L200.416 150.122L218.185 132.351L213.648 127.813L195.879 145.585Z" fill="#FF59EE"/>
<path d="M200.43 150.122L204.966 154.659L222.735 136.888L218.199 132.351L200.43 150.122Z" fill="#AB41FF"/>
<path d="M227.909 137.431C227.909 136.876 227.8 136.326 227.588 135.813C227.375 135.3 227.063 134.834 226.67 134.442L216.099 123.871C215.306 123.08 214.231 122.636 213.111 122.637C211.991 122.638 210.917 123.083 210.125 123.875C209.333 124.667 208.888 125.741 208.887 126.861C208.886 127.982 209.33 129.056 210.121 129.85L220.691 140.421C221.282 141.012 222.036 141.414 222.856 141.577C223.676 141.74 224.526 141.657 225.298 141.337C226.071 141.017 226.731 140.475 227.196 139.78C227.66 139.085 227.908 138.267 227.909 137.431Z" fill="url(#paint10_linear_2531_6819)"/>
<path d="M213.101 160.688C213.102 160.132 212.993 159.582 212.78 159.069C212.568 158.556 212.256 158.09 211.862 157.698L192.836 138.671C192.042 137.88 190.968 137.436 189.848 137.437C188.727 137.437 187.653 137.883 186.861 138.675C186.069 139.467 185.624 140.541 185.623 141.661C185.622 142.781 186.066 143.856 186.857 144.649L205.884 163.677C206.475 164.268 207.228 164.671 208.048 164.834C208.868 164.997 209.718 164.913 210.491 164.593C211.263 164.273 211.924 163.732 212.388 163.036C212.853 162.341 213.101 161.524 213.101 160.688Z" fill="url(#paint11_linear_2531_6819)"/>
</g>
<path d="M11.0787 146.551L9.17884 137.367L0.00106142 135.473L9.17884 133.578L11.0787 124.394L12.9729 133.578L22.1562 135.473L12.9729 137.367L11.0787 146.551Z" fill="white"/>
<path d="M233.586 22.1563L231.687 12.9725L222.509 11.0781L231.687 9.18374L233.586 -3.71785e-05L235.481 9.18374L244.664 11.0781L235.481 12.9725L233.586 22.1563Z" fill="white"/>
<path d="M89.9244 95.7363L88.0245 86.5525L78.8468 84.6582L88.0245 82.7638L89.9244 73.58L91.8186 82.7638L101.002 84.6582L91.8186 86.5525L89.9244 95.7363Z" fill="white"/>
<path d="M211.736 188.694L210.118 180.872L202.3 179.258L210.118 177.644L211.736 169.821L213.349 177.644L221.172 179.258L213.349 180.872L211.736 188.694Z" fill="white"/>
<path d="M340.564 150.272L338.946 142.45L331.128 140.836L338.946 139.222L340.564 131.4L342.178 139.222L350 140.836L342.178 142.45L340.564 150.272Z" fill="white"/>
<path d="M115.633 178.703L113.83 169.988L105.121 168.191L113.83 166.393L115.633 157.679L117.43 166.393L126.145 168.191L117.43 169.988L115.633 178.703Z" fill="white"/>
<path d="M152.162 137.875L151.006 132.287L145.422 131.135L151.006 129.982L152.162 124.394L153.315 129.982L158.902 131.135L153.315 132.287L152.162 137.875Z" fill="white"/>
<path d="M169.68 204.449L168.524 198.861L162.94 197.709L168.524 196.556L169.68 190.969L170.832 196.556L176.42 197.709L170.832 198.861L169.68 204.449Z" fill="white"/>
<path d="M243.252 148.387L242.096 142.799L236.512 141.646L242.096 140.494L243.252 134.906L244.405 140.494L249.992 141.646L244.405 142.799L243.252 148.387Z" fill="white"/>
<path d="M287.055 204.449L285.899 198.861L280.315 197.709L285.899 196.556L287.055 190.969L288.207 196.556L293.795 197.709L288.207 198.861L287.055 204.449Z" fill="white"/>
<defs>
<filter id="filter0_dddii_2531_6819" x="85.3359" y="6.50781" width="195.852" height="109.928" filterUnits="userSpaceOnUse" color-interpolation-filters="sRGB">
<feFlood flood-opacity="0" result="BackgroundImageFix"/>
<feColorMatrix in="SourceAlpha" type="matrix" values="0 0 0 0 0 0 0 0 0 0 0 0 0 0 0 0 0 0 127 0" result="hardAlpha"/>
<feOffset dy="8"/>
<feGaussianBlur stdDeviation="5"/>
<feComposite in2="hardAlpha" operator="out"/>
<feColorMatrix type="matrix" values="0 0 0 0 0.160784 0 0 0 0 0.0627451 0 0 0 0 0.843137 0 0 0 1 0"/>
<feBlend mode="normal" in2="BackgroundImageFix" result="effect1_dropShadow_2531_6819"/>
<feColorMatrix in="SourceAlpha" type="matrix" values="0 0 0 0 0 0 0 0 0 0 0 0 0 0 0 0 0 0 127 0" result="hardAlpha"/>
<feOffset dy="5"/>
<feComposite in2="hardAlpha" operator="out"/>
<feColorMatrix type="matrix" values="0 0 0 0 0.27917 0 0 0 0 0.179688 0 0 0 0 0.8625 0 0 0 1 0"/>
<feBlend mode="normal" in2="effect1_dropShadow_2531_6819" result="effect2_dropShadow_2531_6819"/>
<feColorMatrix in="SourceAlpha" type="matrix" values="0 0 0 0 0 0 0 0 0 0 0 0 0 0 0 0 0 0 127 0" result="hardAlpha"/>
<feOffset dy="2"/>
<feGaussianBlur stdDeviation="1.5"/>
<feComposite in2="hardAlpha" operator="out"/>
<feColorMatrix type="matrix" values="0 0 0 0 1 0 0 0 0 1 0 0 0 0 1 0 0 0 0.3 0"/>
<feBlend mode="normal" in2="effect2_dropShadow_2531_6819" result="effect3_dropShadow_2531_6819"/>
<feBlend mode="normal" in="SourceGraphic" in2="effect3_dropShadow_2531_6819" result="shape"/>
<feColorMatrix in="SourceAlpha" type="matrix" values="0 0 0 0 0 0 0 0 0 0 0 0 0 0 0 0 0 0 127 0" result="hardAlpha"/>
<feOffset dy="-4"/>
<feGaussianBlur stdDeviation="2"/>
<feComposite in2="hardAlpha" operator="arithmetic" k2="-1" k3="1"/>
<feColorMatrix type="matrix" values="0 0 0 0 0 0 0 0 0 0.1 0 0 0 0 1 0 0 0 0.3 0"/>
<feBlend mode="normal" in2="shape" result="effect4_innerShadow_2531_6819"/>
<feColorMatrix in="SourceAlpha" type="matrix" values="0 0 0 0 0 0 0 0 0 0 0 0 0 0 0 0 0 0 127 0" result="hardAlpha"/>
<feOffset dy="-2"/>
<feGaussianBlur stdDeviation="1"/>
<feComposite in2="hardAlpha" operator="arithmetic" k2="-1" k3="1"/>
<feColorMatrix type="matrix" values="0 0 0 0 1 0 0 0 0 1 0 0 0 0 1 0 0 0 0.55 0"/>
<feBlend mode="normal" in2="effect4_innerShadow_2531_6819" result="effect5_innerShadow_2531_6819"/>
</filter>
<filter id="filter1_dddii_2531_6819" x="56.5723" y="129.148" width="76.0625" height="93.834" filterUnits="userSpaceOnUse" color-interpolation-filters="sRGB">
<feFlood flood-opacity="0" result="BackgroundImageFix"/>
<feColorMatrix in="SourceAlpha" type="matrix" values="0 0 0 0 0 0 0 0 0 0 0 0 0 0 0 0 0 0 127 0" result="hardAlpha"/>
<feOffset dy="8"/>
<feGaussianBlur stdDeviation="5"/>
<feComposite in2="hardAlpha" operator="out"/>
<feColorMatrix type="matrix" values="0 0 0 0 0.160867 0 0 0 0 0.0645277 0 0 0 0 0.841667 0 0 0 1 0"/>
<feBlend mode="normal" in2="BackgroundImageFix" result="effect1_dropShadow_2531_6819"/>
<feColorMatrix in="SourceAlpha" type="matrix" values="0 0 0 0 0 0 0 0 0 0 0 0 0 0 0 0 0 0 127 0" result="hardAlpha"/>
<feOffset dy="4"/>
<feComposite in2="hardAlpha" operator="out"/>
<feColorMatrix type="matrix" values="0 0 0 0 0.110723 0 0 0 0 0.0609304 0 0 0 0 0.683333 0 0 0 1 0"/>
<feBlend mode="normal" in2="effect1_dropShadow_2531_6819" result="effect2_dropShadow_2531_6819"/>
<feColorMatrix in="SourceAlpha" type="matrix" values="0 0 0 0 0 0 0 0 0 0 0 0 0 0 0 0 0 0 127 0" result="hardAlpha"/>
<feOffset dy="2"/>
<feGaussianBlur stdDeviation="1"/>
<feComposite in2="hardAlpha" operator="out"/>
<feColorMatrix type="matrix" values="0 0 0 0 1 0 0 0 0 1 0 0 0 0 1 0 0 0 0.25 0"/>
<feBlend mode="normal" in2="effect2_dropShadow_2531_6819" result="effect3_dropShadow_2531_6819"/>
<feBlend mode="normal" in="SourceGraphic" in2="effect3_dropShadow_2531_6819" result="shape"/>
<feColorMatrix in="SourceAlpha" type="matrix" values="0 0 0 0 0 0 0 0 0 0 0 0 0 0 0 0 0 0 127 0" result="hardAlpha"/>
<feOffset dy="-4"/>
<feGaussianBlur stdDeviation="2"/>
<feComposite in2="hardAlpha" operator="arithmetic" k2="-1" k3="1"/>
<feColorMatrix type="matrix" values="0 0 0 0 0 0 0 0 0 0 0 0 0 0 0 0 0 0 0.2 0"/>
<feBlend mode="normal" in2="shape" result="effect4_innerShadow_2531_6819"/>
<feColorMatrix in="SourceAlpha" type="matrix" values="0 0 0 0 0 0 0 0 0 0 0 0 0 0 0 0 0 0 127 0" result="hardAlpha"/>
<feOffset dy="-2"/>
<feGaussianBlur stdDeviation="0.5"/>
<feComposite in2="hardAlpha" operator="arithmetic" k2="-1" k3="1"/>
<feColorMatrix type="matrix" values="0 0 0 0 1 0 0 0 0 1 0 0 0 0 1 0 0 0 0.5 0"/>
<feBlend mode="normal" in2="effect4_innerShadow_2531_6819" result="effect5_innerShadow_2531_6819"/>
</filter>
<filter id="filter2_dddii_2531_6819" x="0.523438" y="130.902" width="67.3027" height="101.842" filterUnits="userSpaceOnUse" color-interpolation-filters="sRGB">
<feFlood flood-opacity="0" result="BackgroundImageFix"/>
<feColorMatrix in="SourceAlpha" type="matrix" values="0 0 0 0 0 0 0 0 0 0 0 0 0 0 0 0 0 0 127 0" result="hardAlpha"/>
<feOffset dy="9"/>
<feGaussianBlur stdDeviation="5"/>
<feComposite in2="hardAlpha" operator="out"/>
<feColorMatrix type="matrix" values="0 0 0 0 0.160867 0 0 0 0 0.0645277 0 0 0 0 0.841667 0 0 0 1 0"/>
<feBlend mode="normal" in2="BackgroundImageFix" result="effect1_dropShadow_2531_6819"/>
<feColorMatrix in="SourceAlpha" type="matrix" values="0 0 0 0 0 0 0 0 0 0 0 0 0 0 0 0 0 0 127 0" result="hardAlpha"/>
<feOffset dy="4"/>
<feComposite in2="hardAlpha" operator="out"/>
<feColorMatrix type="matrix" values="0 0 0 0 0.504167 0 0 0 0 0.204608 0 0 0 0 0.204608 0 0 0 1 0"/>
<feBlend mode="normal" in2="effect1_dropShadow_2531_6819" result="effect2_dropShadow_2531_6819"/>
<feColorMatrix in="SourceAlpha" type="matrix" values="0 0 0 0 0 0 0 0 0 0 0 0 0 0 0 0 0 0 127 0" result="hardAlpha"/>
<feOffset dy="2"/>
<feGaussianBlur stdDeviation="1"/>
<feComposite in2="hardAlpha" operator="out"/>
<feColorMatrix type="matrix" values="0 0 0 0 1 0 0 0 0 1 0 0 0 0 1 0 0 0 0.25 0"/>
<feBlend mode="normal" in2="effect2_dropShadow_2531_6819" result="effect3_dropShadow_2531_6819"/>
<feBlend mode="normal" in="SourceGraphic" in2="effect3_dropShadow_2531_6819" result="shape"/>
<feColorMatrix in="SourceAlpha" type="matrix" values="0 0 0 0 0 0 0 0 0 0 0 0 0 0 0 0 0 0 127 0" result="hardAlpha"/>
<feOffset dy="-4"/>
<feGaussianBlur stdDeviation="2"/>
<feComposite in2="hardAlpha" operator="arithmetic" k2="-1" k3="1"/>
<feColorMatrix type="matrix" values="0 0 0 0 0 0 0 0 0 0 0 0 0 0 0 0 0 0 0.2 0"/>
<feBlend mode="normal" in2="shape" result="effect4_innerShadow_2531_6819"/>
<feColorMatrix in="SourceAlpha" type="matrix" values="0 0 0 0 0 0 0 0 0 0 0 0 0 0 0 0 0 0 127 0" result="hardAlpha"/>
<feOffset dy="-2"/>
<feGaussianBlur stdDeviation="0.5"/>
<feComposite in2="hardAlpha" operator="arithmetic" k2="-1" k3="1"/>
<feColorMatrix type="matrix" values="0 0 0 0 1 0 0 0 0 1 0 0 0 0 1 0 0 0 0.5 0"/>
<feBlend mode="normal" in2="effect4_innerShadow_2531_6819" result="effect5_innerShadow_2531_6819"/>
</filter>
<filter id="filter3_dddi_2531_6819" x="233.52" y="131.148" width="63.7988" height="91.834" filterUnits="userSpaceOnUse" color-interpolation-filters="sRGB">
<feFlood flood-opacity="0" result="BackgroundImageFix"/>
<feColorMatrix in="SourceAlpha" type="matrix" values="0 0 0 0 0 0 0 0 0 0 0 0 0 0 0 0 0 0 127 0" result="hardAlpha"/>
<feOffset dy="8"/>
<feGaussianBlur stdDeviation="5"/>
<feComposite in2="hardAlpha" operator="out"/>
<feColorMatrix type="matrix" values="0 0 0 0 0.160867 0 0 0 0 0.0645277 0 0 0 0 0.841667 0 0 0 1 0"/>
<feBlend mode="normal" in2="BackgroundImageFix" result="effect1_dropShadow_2531_6819"/>
<feColorMatrix in="SourceAlpha" type="matrix" values="0 0 0 0 0 0 0 0 0 0 0 0 0 0 0 0 0 0 127 0" result="hardAlpha"/>
<feOffset dy="4"/>
<feComposite in2="hardAlpha" operator="out"/>
<feColorMatrix type="matrix" values="0 0 0 0 0.3 0 0 0 0 0 0 0 0 0 0.6 0 0 0 1 0"/>
<feBlend mode="normal" in2="effect1_dropShadow_2531_6819" result="effect2_dropShadow_2531_6819"/>
<feColorMatrix in="SourceAlpha" type="matrix" values="0 0 0 0 0 0 0 0 0 0 0 0 0 0 0 0 0 0 127 0" result="hardAlpha"/>
<feOffset dy="2"/>
<feGaussianBlur stdDeviation="1"/>
<feComposite in2="hardAlpha" operator="out"/>
<feColorMatrix type="matrix" values="0 0 0 0 1 0 0 0 0 1 0 0 0 0 1 0 0 0 0.25 0"/>
<feBlend mode="normal" in2="effect2_dropShadow_2531_6819" result="effect3_dropShadow_2531_6819"/>
<feBlend mode="normal" in="SourceGraphic" in2="effect3_dropShadow_2531_6819" result="shape"/>
<feColorMatrix in="SourceAlpha" type="matrix" values="0 0 0 0 0 0 0 0 0 0 0 0 0 0 0 0 0 0 127 0" result="hardAlpha"/>
<feOffset dy="-2"/>
<feGaussianBlur stdDeviation="0.5"/>
<feComposite in2="hardAlpha" operator="arithmetic" k2="-1" k3="1"/>
<feColorMatrix type="matrix" values="0 0 0 0 1 0 0 0 0 1 0 0 0 0 1 0 0 0 0.5 0"/>
<feBlend mode="normal" in2="shape" result="effect4_innerShadow_2531_6819"/>
</filter>
<filter id="filter4_dddi_2531_6819" x="291.34" y="132.902" width="62.0469" height="98.8418" filterUnits="userSpaceOnUse" color-interpolation-filters="sRGB">
<feFlood flood-opacity="0" result="BackgroundImageFix"/>
<feColorMatrix in="SourceAlpha" type="matrix" values="0 0 0 0 0 0 0 0 0 0 0 0 0 0 0 0 0 0 127 0" result="hardAlpha"/>
<feOffset dy="8"/>
<feGaussianBlur stdDeviation="5"/>
<feComposite in2="hardAlpha" operator="out"/>
<feColorMatrix type="matrix" values="0 0 0 0 0.160867 0 0 0 0 0.0645277 0 0 0 0 0.841667 0 0 0 1 0"/>
<feBlend mode="normal" in2="BackgroundImageFix" result="effect1_dropShadow_2531_6819"/>
<feColorMatrix in="SourceAlpha" type="matrix" values="0 0 0 0 0 0 0 0 0 0 0 0 0 0 0 0 0 0 127 0" result="hardAlpha"/>
<feOffset dy="4"/>
<feComposite in2="hardAlpha" operator="out"/>
<feColorMatrix type="matrix" values="0 0 0 0 0.208333 0 0 0 0 0.416667 0 0 0 0 0 0 0 0 1 0"/>
<feBlend mode="normal" in2="effect1_dropShadow_2531_6819" result="effect2_dropShadow_2531_6819"/>
<feColorMatrix in="SourceAlpha" type="matrix" values="0 0 0 0 0 0 0 0 0 0 0 0 0 0 0 0 0 0 127 0" result="hardAlpha"/>
<feOffset dy="2"/>
<feGaussianBlur stdDeviation="1"/>
<feComposite in2="hardAlpha" operator="out"/>
<feColorMatrix type="matrix" values="0 0 0 0 1 0 0 0 0 1 0 0 0 0 1 0 0 0 0.25 0"/>
<feBlend mode="normal" in2="effect2_dropShadow_2531_6819" result="effect3_dropShadow_2531_6819"/>
<feBlend mode="normal" in="SourceGraphic" in2="effect3_dropShadow_2531_6819" result="shape"/>
<feColorMatrix in="SourceAlpha" type="matrix" values="0 0 0 0 0 0 0 0 0 0 0 0 0 0 0 0 0 0 127 0" result="hardAlpha"/>
<feOffset dy="-2"/>
<feGaussianBlur stdDeviation="0.5"/>
<feComposite in2="hardAlpha" operator="arithmetic" k2="-1" k3="1"/>
<feColorMatrix type="matrix" values="0 0 0 0 1 0 0 0 0 1 0 0 0 0 1 0 0 0 0.5 0"/>
<feBlend mode="normal" in2="shape" result="effect4_innerShadow_2531_6819"/>
</filter>
<filter id="filter5_d_2531_6819" x="130.896" y="120.643" width="88.334" height="88.3281" filterUnits="userSpaceOnUse" color-interpolation-filters="sRGB">
<feFlood flood-opacity="0" result="BackgroundImageFix"/>
<feColorMatrix in="SourceAlpha" type="matrix" values="0 0 0 0 0 0 0 0 0 0 0 0 0 0 0 0 0 0 127 0" result="hardAlpha"/>
<feOffset dy="2"/>
<feGaussianBlur stdDeviation="2"/>
<feComposite in2="hardAlpha" operator="out"/>
<feColorMatrix type="matrix" values="0 0 0 0 0 0 0 0 0 0 0 0 0 0 0 0 0 0 0.5 0"/>
<feBlend mode="normal" in2="BackgroundImageFix" result="effect1_dropShadow_2531_6819"/>
<feBlend mode="normal" in="SourceGraphic" in2="effect1_dropShadow_2531_6819" result="shape"/>
</filter>
<filter id="filter6_d_2531_6819" x="137.578" y="114.637" width="100.33" height="100.343" filterUnits="userSpaceOnUse" color-interpolation-filters="sRGB">
<feFlood flood-opacity="0" result="BackgroundImageFix"/>
<feColorMatrix in="SourceAlpha" type="matrix" values="0 0 0 0 0 0 0 0 0 0 0 0 0 0 0 0 0 0 127 0" result="hardAlpha"/>
<feOffset dy="2"/>
<feGaussianBlur stdDeviation="5"/>
<feComposite in2="hardAlpha" operator="out"/>
<feColorMatrix type="matrix" values="0 0 0 0 0 0 0 0 0 0 0 0 0 0 0 0 0 0 0.5 0"/>
<feBlend mode="normal" in2="BackgroundImageFix" result="effect1_dropShadow_2531_6819"/>
<feBlend mode="normal" in="SourceGraphic" in2="effect1_dropShadow_2531_6819" result="shape"/>
</filter>
<linearGradient id="paint0_linear_2531_6819" x1="126.856" y1="10.5078" x2="126.856" y2="126.64" gradientUnits="userSpaceOnUse">
<stop stop-color="#FECECE"/>
<stop offset="0.6125" stop-color="white"/>
</linearGradient>
<linearGradient id="paint1_linear_2531_6819" x1="217.271" y1="10.5078" x2="217.271" y2="126.64" gradientUnits="userSpaceOnUse">
<stop stop-color="#FECECE"/>
<stop offset="0.6125" stop-color="white"/>
</linearGradient>
<linearGradient id="paint2_linear_2531_6819" x1="181.902" y1="131.692" x2="181.902" y2="213.445" gradientUnits="userSpaceOnUse">
<stop offset="0.296875" stop-color="#00F0FF"/>
<stop offset="1" stop-color="#0094FF"/>
</linearGradient>
<linearGradient id="paint3_linear_2531_6819" x1="181.501" y1="132.033" x2="181.501" y2="213.744" gradientUnits="userSpaceOnUse">
<stop offset="0.398958" stop-color="#FFD600"/>
<stop offset="1" stop-color="#FF8C3D"/>
</linearGradient>
<linearGradient id="paint4_linear_2531_6819" x1="173.376" y1="131.893" x2="173.376" y2="213.735" gradientUnits="userSpaceOnUse">
<stop offset="0.270833" stop-color="#FF59EE"/>
<stop offset="1" stop-color="#7000FF"/>
</linearGradient>
<linearGradient id="paint5_linear_2531_6819" x1="172.409" y1="131.604" x2="172.409" y2="213.78" gradientUnits="userSpaceOnUse">
<stop offset="0.427083" stop-color="#B6FF1C"/>
<stop offset="1" stop-color="#41CB00"/>
</linearGradient>
<linearGradient id="paint6_linear_2531_6819" x1="134.896" y1="132.078" x2="153.768" y2="132.078" gradientUnits="userSpaceOnUse">
<stop stop-color="#0047FF"/>
<stop offset="1" stop-color="#66E7FF"/>
</linearGradient>
<linearGradient id="paint7_linear_2531_6819" x1="214.617" y1="176.503" x2="157.77" y2="176.503" gradientUnits="userSpaceOnUse">
<stop stop-color="#66E7FF"/>
<stop offset="1" stop-color="white"/>
</linearGradient>
<linearGradient id="paint8_linear_2531_6819" x1="149.723" y1="150.949" x2="176.683" y2="150.949" gradientUnits="userSpaceOnUse">
<stop stop-color="#0047FF"/>
<stop offset="1" stop-color="#66E7FF"/>
</linearGradient>
<linearGradient id="paint9_linear_2531_6819" x1="176.621" y1="202.979" x2="176.621" y2="150.047" gradientUnits="userSpaceOnUse">
<stop stop-color="#F4B3FF"/>
<stop offset="1" stop-color="white"/>
</linearGradient>
<linearGradient id="paint10_linear_2531_6819" x1="208.882" y1="132.146" x2="227.909" y2="132.146" gradientUnits="userSpaceOnUse">
<stop stop-color="#FB4AFF"/>
<stop offset="1" stop-color="#644EFF"/>
</linearGradient>
<linearGradient id="paint11_linear_2531_6819" x1="185.623" y1="151.176" x2="213.101" y2="151.176" gradientUnits="userSpaceOnUse">
<stop stop-color="#FF59EE"/>
<stop offset="1" stop-color="#644EFD"/>
</linearGradient>
</defs>
</svg>
