<svg width="171" height="60" viewBox="0 0 171 60" fill="none" xmlns="http://www.w3.org/2000/svg">
<g filter="url(#filter0_ddii_2500_2124)">
<path d="M43.7104 33.574C45.1941 33.4425 46.6725 33.3046 48.1456 33.16C48.2245 33.16 48.3035 33.1206 48.3666 33.0417C48.4455 32.9432 48.4771 32.8446 48.4455 32.7657C47.6248 28.9153 46.7988 25.0254 45.9675 21.0961C45.9675 21.0566 45.9517 21.0566 45.9359 21.0566C45.9043 21.0566 45.8886 21.0566 45.8886 21.0961C45.0678 25.1436 44.2418 29.1912 43.4105 33.2388C43.3947 33.3177 43.3947 33.4163 43.4579 33.4951C43.5368 33.5542 43.6315 33.5937 43.7104 33.574ZM51.2076 15.478C53.9961 24.6377 56.7845 33.5082 59.573 42.0897C59.7308 42.6219 59.6361 43.1541 59.2731 43.6667C58.9258 44.1792 58.4523 44.4749 57.8683 44.5734C56.4689 44.7574 55.0746 44.948 53.6857 45.1451C52.9754 45.2436 52.3441 45.1254 51.7759 44.7706C51.2234 44.3763 50.892 43.8638 50.7499 43.1936C50.5079 42.116 50.2659 41.0318 50.0239 39.941C49.9607 39.7242 49.8187 39.6256 49.5977 39.6454C47.167 39.9345 44.7364 40.2301 42.3057 40.5324C42.0216 40.5718 41.8637 40.7098 41.8322 40.9464C41.6007 42.1291 41.3639 43.3184 41.1219 44.5143C40.9799 45.2436 40.6168 45.8942 40.0486 46.4658C39.512 46.998 38.8806 47.3134 38.1704 47.4317C36.834 47.6288 35.4977 47.826 34.1613 48.0231C33.5773 48.1216 33.088 47.9245 32.725 47.4711C32.3778 46.9783 32.2989 46.4264 32.4567 45.7759C35.2451 35.762 38.0336 25.7942 40.822 15.8723C41.0114 15.1232 41.406 14.5121 41.9742 14.0193C42.5582 13.5462 43.2369 13.2703 43.963 13.2505C45.3309 13.2111 46.6988 13.1651 48.0667 13.1126C48.777 13.0928 49.4083 13.3097 49.9765 13.7631C50.5763 14.1967 50.9867 14.7684 51.2076 15.478Z" fill="url(#paint0_linear_2500_2124)"/>
</g>
<g filter="url(#filter1_ddii_2500_2124)">
<path d="M15.3367 44.1116C17.0409 43.8752 18.2717 43.363 19.0292 42.5355C19.8339 41.7277 20.2284 40.5455 20.2284 39.0482C20.2284 36.5854 18.6662 35.5018 15.5418 35.817C14.9632 35.8827 14.3794 35.9418 13.7902 35.9943C13.5378 36.014 13.4115 36.1913 13.4115 36.4869C13.4115 38.8774 13.4115 41.2614 13.4115 43.6388C13.4115 43.9343 13.522 44.1116 13.7587 44.1313C14.2636 44.1904 14.7844 44.1707 15.3367 44.1116ZM13.4115 22.3013C13.4115 24.3766 13.4115 26.4453 13.4115 28.5075C13.4115 28.803 13.5378 28.9409 13.7902 28.9212C14.0953 28.895 14.3951 28.8687 14.6897 28.8424C17.9561 28.5863 19.5972 27.2268 19.5972 24.7443C19.5972 22.4195 18.177 21.3359 15.3367 21.4935C14.7844 21.5329 14.2636 21.592 13.7587 21.7496C13.522 21.8087 13.4115 22.0057 13.4115 22.3013ZM20.907 31.384C23.1004 31.5022 24.8519 32.31 26.1459 33.768C27.4556 35.2259 28.1183 36.9991 28.1183 39.1073C28.1183 42.6931 27.0611 45.4908 24.9624 47.5004C22.8794 49.51 19.5341 50.8695 14.9106 51.5985C12.5436 51.9531 10.082 52.1896 7.52565 52.3078C6.84711 52.3275 6.26326 52.091 5.78986 51.5394C5.33225 50.968 5.11133 50.239 5.11133 49.3918C5.11133 38.9759 5.11133 28.5337 5.11133 18.0653C5.11133 17.2575 5.33225 16.4891 5.78986 15.8192C6.24748 15.1691 6.81555 14.7947 7.49409 14.6765C9.9084 14.3219 12.228 14.0854 14.4846 13.9869C23.0057 13.6717 27.2662 16.5876 27.2662 22.7544C27.2662 24.8429 26.6824 26.6358 25.5147 28.1922C24.3785 29.7093 22.8479 30.7535 20.907 31.2658C20.8754 31.2658 20.8754 31.2855 20.8754 31.3249C20.8754 31.3643 20.8754 31.384 20.907 31.384Z" fill="url(#paint1_linear_2500_2124)"/>
</g>
<g filter="url(#filter2_ddi_2500_2124)">
<path d="M137.314 40.4041C137.961 40.4831 138.529 40.7988 139.018 41.4106C139.508 41.9829 139.744 42.6538 139.744 43.3642C139.744 44.1667 139.744 44.9626 139.744 45.752C139.744 46.4624 139.508 47.0347 139.018 47.5083C138.529 47.9424 137.961 48.12 137.314 48.0214C131.833 47.2057 126.352 46.3966 120.872 45.5941C120.209 45.4955 119.641 45.16 119.167 44.6272C118.678 44.0746 118.441 43.4629 118.441 42.8117C118.441 33.9052 118.441 24.8408 118.441 15.6186C118.441 14.9476 118.678 14.3556 119.167 13.8425C119.641 13.3492 120.209 13.0927 120.872 13.1124C122.165 13.1519 123.459 13.1913 124.753 13.2308C125.4 13.2505 125.968 13.5465 126.458 14.0793C126.931 14.6319 127.168 15.2436 127.168 15.954C127.168 23.637 127.168 31.2477 127.168 38.786C127.168 39.0425 127.31 39.2004 127.562 39.2201C130.813 39.6148 134.063 40.0095 137.314 40.4041Z" fill="url(#paint2_linear_2500_2124)"/>
</g>
<g filter="url(#filter3_ddi_2500_2124)">
<path d="M164.583 14.5989C165.23 14.6187 165.798 14.9556 166.287 15.5302C166.776 16.1642 167.013 16.8577 167.013 17.6503C167.013 18.4561 167.013 19.2619 167.013 20.0676C167.013 20.8602 166.776 21.5339 166.287 22.0887C165.798 22.6435 165.23 22.9209 164.583 22.8813C161.543 22.6831 158.503 22.4916 155.462 22.3066C155.21 22.2868 155.084 22.4057 155.084 22.6633C155.084 24.3937 155.084 26.1308 155.084 27.8744C155.084 28.1716 155.21 28.35 155.462 28.3698C158.219 28.5811 160.975 28.7991 163.731 29.0237C164.378 29.0831 164.946 29.4199 165.435 30.0342C165.924 30.6682 166.161 31.3815 166.161 32.1741C166.161 32.795 166.161 33.4224 166.161 34.0565C166.161 34.849 165.924 35.5227 165.435 36.0577C164.946 36.5927 164.378 36.8503 163.731 36.771C160.975 36.4936 158.219 36.2162 155.462 35.9388C155.21 35.8992 155.084 36.0181 155.084 36.2757C155.084 38.3363 155.084 40.3904 155.084 42.4379C155.084 42.7351 155.21 42.9134 155.462 42.953C158.503 43.3361 161.543 43.7126 164.583 44.0824C165.23 44.1617 165.798 44.5184 166.287 45.1524C166.776 45.8063 167.013 46.5394 167.013 47.3122C167.013 48.1179 167.013 48.9171 167.013 49.7097C167.013 50.5022 166.776 51.1561 166.287 51.6713C165.798 52.1666 165.23 52.3846 164.583 52.2855C159.386 51.5062 154.189 50.7136 148.993 49.9078C148.33 49.8088 147.762 49.4323 147.288 48.818C146.799 48.2038 146.562 47.5301 146.562 46.797C146.562 36.8106 146.562 26.7648 146.562 16.6596C146.562 15.9265 146.799 15.2726 147.288 14.7376C147.762 14.2224 148.33 13.945 148.993 13.9649C154.189 14.1762 159.386 14.3876 164.583 14.5989Z" fill="url(#paint3_linear_2500_2124)"/>
</g>
<g filter="url(#filter4_d_2500_2124)">
<path d="M72.5412 10.5143L70.3346 12.7209L78.977 21.3643L81.1836 19.1577L72.5412 10.5143Z" fill="#66E7FF"/>
<path d="M70.3342 12.7232L68.1276 14.9299L76.77 23.5732L78.9766 21.3666L70.3342 12.7232Z" fill="#0047FF"/>
<path d="M81.1459 19.1231L78.9351 21.3235L84.1072 26.4956L84.4774 26.8657L84.8475 27.2359L91.6133 34.0017L91.9835 34.3719L104.384 46.7725C104.502 46.6548 104.59 46.5096 104.638 46.3499C104.687 46.1902 104.695 46.0209 104.662 45.8573L102.77 36.5312C102.675 36.0329 102.4 35.5867 101.999 35.2767L96.8265 31.2666L96.4049 30.9478L95.9834 30.6188L87.3873 23.9558L86.976 23.6371L86.5647 23.3286L81.1459 19.1231Z" fill="white"/>
<path d="M66.2121 16.6497C66.403 16.8406 66.6297 16.9921 66.8791 17.0954C67.1286 17.1988 67.396 17.252 67.666 17.252C67.936 17.252 68.2034 17.1988 68.4529 17.0954C68.7024 16.9921 68.929 16.8406 69.12 16.6497L74.2612 11.5085C74.6459 11.1227 74.8617 10.6 74.8613 10.0551C74.8609 9.51031 74.6443 8.98791 74.2591 8.60266C73.8738 8.21741 73.3514 8.00081 72.8066 8.00042C72.2618 8.00003 71.7391 8.2159 71.3533 8.6006L66.2121 13.7418C66.0211 13.9327 65.8695 14.1593 65.7662 14.4088C65.6628 14.6583 65.6096 14.9257 65.6096 15.1957C65.6096 15.4658 65.6628 15.7332 65.7662 15.9826C65.8695 16.2321 66.0211 16.4588 66.2121 16.6497Z" fill="url(#paint4_linear_2500_2124)"/>
<path d="M78.9339 21.3239L76.7334 23.5346L81.5662 29.776L81.8952 30.1976L82.2242 30.6192L87.386 37.2822L87.7048 37.6935L88.0132 38.0945L92.8871 44.3873C93.197 44.789 93.6432 45.0633 94.1415 45.1585L103.468 47.0505C103.631 47.0818 103.8 47.0729 103.959 47.0246C104.119 46.9762 104.264 46.8898 104.383 46.7729L91.9822 34.3723L91.6121 34.0021L84.8463 27.2363L84.4761 26.8661L84.1059 26.496L78.9339 21.3239Z" fill="url(#paint5_linear_2500_2124)"/>
<path d="M73.4097 27.9597C73.6006 28.1507 73.8273 28.3021 74.0767 28.4055C74.3262 28.5088 74.5936 28.562 74.8636 28.562C75.1336 28.562 75.401 28.5088 75.6505 28.4055C75.9 28.3021 76.1266 28.1507 76.3175 27.9597L85.5717 18.7056C85.9564 18.3198 86.1723 17.7971 86.1719 17.2522C86.1715 16.7074 85.9549 16.185 85.5696 15.7998C85.1844 15.4145 84.662 15.1979 84.1172 15.1975C83.5723 15.1971 83.0496 15.413 82.6638 15.7977L73.4097 25.0519C73.2187 25.2427 73.0671 25.4694 72.9637 25.7189C72.8604 25.9683 72.8071 26.2357 72.8071 26.5058C72.8071 26.7758 72.8604 27.0432 72.9637 27.2927C73.0671 27.5422 73.2187 27.7688 73.4097 27.9597Z" fill="url(#paint6_linear_2500_2124)"/>
</g>
<g filter="url(#filter5_d_2500_2124)">
<path d="M72.9902 47.0545L82.3132 45.1564C82.8123 45.0656 83.2602 44.7935 83.5707 44.3924L99.7285 23.5346L97.5219 21.3279L72.0791 46.7697C72.1962 46.8879 72.3404 46.9757 72.4992 47.0253C72.6581 47.075 72.8266 47.085 72.9902 47.0545Z" fill="url(#paint7_linear_2500_2124)"/>
<path d="M95.3149 19.1216L74.457 35.2794C74.0559 35.5899 73.7838 36.0378 73.693 36.5369L71.7949 45.86C71.7646 46.0235 71.7747 46.192 71.8243 46.3508C71.874 46.5096 71.9616 46.6538 72.0797 46.771L97.5215 21.3282L95.3149 19.1216Z" fill="white"/>
<path d="M95.2754 19.1585L97.482 21.3651L106.124 12.7217L103.918 10.5151L95.2754 19.1585Z" fill="#FF59EE"/>
<path d="M97.4824 21.3665L99.689 23.5731L108.331 14.9297L106.125 12.7231L97.4824 21.3665Z" fill="#AB41FF"/>
<path d="M110.849 15.1953C110.85 14.9252 110.797 14.6577 110.693 14.4082C110.59 14.1586 110.438 13.932 110.247 13.7414L105.106 8.60017C104.72 8.21547 104.197 7.99961 103.652 8C103.108 8.00039 102.585 8.21699 102.2 8.60224C101.815 8.98749 101.598 9.50989 101.598 10.0547C101.597 10.5995 101.813 11.1222 102.198 11.508L107.339 16.6492C107.627 16.9368 107.993 17.1325 108.392 17.2119C108.791 17.2912 109.204 17.2504 109.58 17.0948C109.956 16.9392 110.277 16.6757 110.503 16.3376C110.729 15.9995 110.849 15.602 110.849 15.1953Z" fill="url(#paint8_linear_2500_2124)"/>
<path d="M103.652 26.5046C103.652 26.2345 103.599 25.9669 103.496 25.7174C103.392 25.4679 103.241 25.2413 103.049 25.0506L93.7951 15.7965C93.4093 15.4118 92.8866 15.1959 92.3418 15.1963C91.797 15.1967 91.2746 15.4133 90.8893 15.7985C90.5041 16.1838 90.2875 16.7062 90.2871 17.251C90.2867 17.7958 90.5026 18.3185 90.8873 18.7043L100.141 27.9585C100.429 28.246 100.795 28.4418 101.194 28.5211C101.593 28.6004 102.007 28.5597 102.382 28.4041C102.758 28.2485 103.079 27.985 103.305 27.6468C103.531 27.3087 103.652 26.9112 103.652 26.5046Z" fill="url(#paint9_linear_2500_2124)"/>
</g>
<path d="M5.38554 19.627L4.46152 15.1604L-0.00235032 14.2391L4.46152 13.3177L5.38554 8.85117L6.30687 13.3177L10.7734 14.2391L6.30687 15.1604L5.38554 19.627Z" fill="white"/>
<path d="M102.981 40.125L102.194 36.3203L98.3914 35.5355L102.194 34.7507L102.981 30.9461L103.766 34.7507L107.57 35.5355L103.766 36.3203L102.981 40.125Z" fill="white"/>
<path d="M165.637 21.4385L164.85 17.6338L161.048 16.849L164.85 16.0642L165.637 12.2596L166.422 16.0642L170.227 16.849L166.422 17.6338L165.637 21.4385Z" fill="white"/>
<path d="M56.2369 35.2666L55.3601 31.0282L51.1243 30.1539L55.3601 29.2797L56.2369 25.0413L57.1112 29.2797L61.3496 30.1539L57.1112 31.0282L56.2369 35.2666Z" fill="white"/>
<path d="M74.0011 15.4072L73.4389 12.6896L70.7229 12.129L73.4389 11.5685L74.0011 8.85085L74.5617 11.5685L77.2793 12.129L74.5617 12.6896L74.0011 15.4072Z" fill="white"/>
<path d="M82.5226 47.7876L81.9604 45.07L79.2444 44.5094L81.9604 43.9488L82.5226 41.2312L83.0832 43.9488L85.8008 44.5094L83.0832 45.07L82.5226 47.7876Z" fill="white"/>
<path d="M118.312 20.52L117.749 17.8024L115.033 17.2418L117.749 16.6813L118.312 13.9636L118.872 16.6813L121.59 17.2418L118.872 17.8024L118.312 20.52Z" fill="white"/>
<path d="M139.614 47.7876L139.052 45.07L136.336 44.5094L139.052 43.9488L139.614 41.2312L140.175 43.9488L142.893 44.5094L140.175 45.07L139.614 47.7876Z" fill="white"/>
<defs>
<filter id="filter0_ddii_2500_2124" x="30.3789" y="9.11133" width="31.2676" height="42.9365" filterUnits="userSpaceOnUse" color-interpolation-filters="sRGB">
<feFlood flood-opacity="0" result="BackgroundImageFix"/>
<feColorMatrix in="SourceAlpha" type="matrix" values="0 0 0 0 0 0 0 0 0 0 0 0 0 0 0 0 0 0 127 0" result="hardAlpha"/>
<feOffset dy="4"/>
<feComposite in2="hardAlpha" operator="out"/>
<feColorMatrix type="matrix" values="0 0 0 0 0.110723 0 0 0 0 0.0609304 0 0 0 0 0.683333 0 0 0 1 0"/>
<feBlend mode="normal" in2="BackgroundImageFix" result="effect1_dropShadow_2500_2124"/>
<feColorMatrix in="SourceAlpha" type="matrix" values="0 0 0 0 0 0 0 0 0 0 0 0 0 0 0 0 0 0 127 0" result="hardAlpha"/>
<feOffset dy="2"/>
<feGaussianBlur stdDeviation="1"/>
<feComposite in2="hardAlpha" operator="out"/>
<feColorMatrix type="matrix" values="0 0 0 0 1 0 0 0 0 1 0 0 0 0 1 0 0 0 0.25 0"/>
<feBlend mode="normal" in2="effect1_dropShadow_2500_2124" result="effect2_dropShadow_2500_2124"/>
<feBlend mode="normal" in="SourceGraphic" in2="effect2_dropShadow_2500_2124" result="shape"/>
<feColorMatrix in="SourceAlpha" type="matrix" values="0 0 0 0 0 0 0 0 0 0 0 0 0 0 0 0 0 0 127 0" result="hardAlpha"/>
<feOffset dy="-4"/>
<feGaussianBlur stdDeviation="2"/>
<feComposite in2="hardAlpha" operator="arithmetic" k2="-1" k3="1"/>
<feColorMatrix type="matrix" values="0 0 0 0 0 0 0 0 0 0 0 0 0 0 0 0 0 0 0.2 0"/>
<feBlend mode="normal" in2="shape" result="effect3_innerShadow_2500_2124"/>
<feColorMatrix in="SourceAlpha" type="matrix" values="0 0 0 0 0 0 0 0 0 0 0 0 0 0 0 0 0 0 127 0" result="hardAlpha"/>
<feOffset dy="-2"/>
<feGaussianBlur stdDeviation="0.5"/>
<feComposite in2="hardAlpha" operator="arithmetic" k2="-1" k3="1"/>
<feColorMatrix type="matrix" values="0 0 0 0 1 0 0 0 0 1 0 0 0 0 1 0 0 0 0.5 0"/>
<feBlend mode="normal" in2="effect3_innerShadow_2500_2124" result="effect4_innerShadow_2500_2124"/>
</filter>
<filter id="filter1_ddii_2500_2124" x="3.11133" y="9.96387" width="27.0078" height="46.3452" filterUnits="userSpaceOnUse" color-interpolation-filters="sRGB">
<feFlood flood-opacity="0" result="BackgroundImageFix"/>
<feColorMatrix in="SourceAlpha" type="matrix" values="0 0 0 0 0 0 0 0 0 0 0 0 0 0 0 0 0 0 127 0" result="hardAlpha"/>
<feOffset dy="4"/>
<feComposite in2="hardAlpha" operator="out"/>
<feColorMatrix type="matrix" values="0 0 0 0 0.504167 0 0 0 0 0.204608 0 0 0 0 0.204608 0 0 0 1 0"/>
<feBlend mode="normal" in2="BackgroundImageFix" result="effect1_dropShadow_2500_2124"/>
<feColorMatrix in="SourceAlpha" type="matrix" values="0 0 0 0 0 0 0 0 0 0 0 0 0 0 0 0 0 0 127 0" result="hardAlpha"/>
<feOffset dy="2"/>
<feGaussianBlur stdDeviation="1"/>
<feComposite in2="hardAlpha" operator="out"/>
<feColorMatrix type="matrix" values="0 0 0 0 1 0 0 0 0 1 0 0 0 0 1 0 0 0 0.25 0"/>
<feBlend mode="normal" in2="effect1_dropShadow_2500_2124" result="effect2_dropShadow_2500_2124"/>
<feBlend mode="normal" in="SourceGraphic" in2="effect2_dropShadow_2500_2124" result="shape"/>
<feColorMatrix in="SourceAlpha" type="matrix" values="0 0 0 0 0 0 0 0 0 0 0 0 0 0 0 0 0 0 127 0" result="hardAlpha"/>
<feOffset dy="-4"/>
<feGaussianBlur stdDeviation="2"/>
<feComposite in2="hardAlpha" operator="arithmetic" k2="-1" k3="1"/>
<feColorMatrix type="matrix" values="0 0 0 0 0 0 0 0 0 0 0 0 0 0 0 0 0 0 0.2 0"/>
<feBlend mode="normal" in2="shape" result="effect3_innerShadow_2500_2124"/>
<feColorMatrix in="SourceAlpha" type="matrix" values="0 0 0 0 0 0 0 0 0 0 0 0 0 0 0 0 0 0 127 0" result="hardAlpha"/>
<feOffset dy="-2"/>
<feGaussianBlur stdDeviation="0.5"/>
<feComposite in2="hardAlpha" operator="arithmetic" k2="-1" k3="1"/>
<feColorMatrix type="matrix" values="0 0 0 0 1 0 0 0 0 1 0 0 0 0 1 0 0 0 0.5 0"/>
<feBlend mode="normal" in2="effect3_innerShadow_2500_2124" result="effect4_innerShadow_2500_2124"/>
</filter>
<filter id="filter2_ddi_2500_2124" x="116.441" y="12.1113" width="25.3027" height="39.9365" filterUnits="userSpaceOnUse" color-interpolation-filters="sRGB">
<feFlood flood-opacity="0" result="BackgroundImageFix"/>
<feColorMatrix in="SourceAlpha" type="matrix" values="0 0 0 0 0 0 0 0 0 0 0 0 0 0 0 0 0 0 127 0" result="hardAlpha"/>
<feOffset dy="4"/>
<feComposite in2="hardAlpha" operator="out"/>
<feColorMatrix type="matrix" values="0 0 0 0 0.3 0 0 0 0 0 0 0 0 0 0.6 0 0 0 1 0"/>
<feBlend mode="normal" in2="BackgroundImageFix" result="effect1_dropShadow_2500_2124"/>
<feColorMatrix in="SourceAlpha" type="matrix" values="0 0 0 0 0 0 0 0 0 0 0 0 0 0 0 0 0 0 127 0" result="hardAlpha"/>
<feOffset dy="2"/>
<feGaussianBlur stdDeviation="1"/>
<feComposite in2="hardAlpha" operator="out"/>
<feColorMatrix type="matrix" values="0 0 0 0 1 0 0 0 0 1 0 0 0 0 1 0 0 0 0.25 0"/>
<feBlend mode="normal" in2="effect1_dropShadow_2500_2124" result="effect2_dropShadow_2500_2124"/>
<feBlend mode="normal" in="SourceGraphic" in2="effect2_dropShadow_2500_2124" result="shape"/>
<feColorMatrix in="SourceAlpha" type="matrix" values="0 0 0 0 0 0 0 0 0 0 0 0 0 0 0 0 0 0 127 0" result="hardAlpha"/>
<feOffset dy="-2"/>
<feGaussianBlur stdDeviation="0.5"/>
<feComposite in2="hardAlpha" operator="arithmetic" k2="-1" k3="1"/>
<feColorMatrix type="matrix" values="0 0 0 0 1 0 0 0 0 1 0 0 0 0 1 0 0 0 0.5 0"/>
<feBlend mode="normal" in2="shape" result="effect3_innerShadow_2500_2124"/>
</filter>
<filter id="filter3_ddi_2500_2124" x="144.562" y="12.9639" width="24.4512" height="43.3452" filterUnits="userSpaceOnUse" color-interpolation-filters="sRGB">
<feFlood flood-opacity="0" result="BackgroundImageFix"/>
<feColorMatrix in="SourceAlpha" type="matrix" values="0 0 0 0 0 0 0 0 0 0 0 0 0 0 0 0 0 0 127 0" result="hardAlpha"/>
<feOffset dy="4"/>
<feComposite in2="hardAlpha" operator="out"/>
<feColorMatrix type="matrix" values="0 0 0 0 0.208333 0 0 0 0 0.416667 0 0 0 0 0 0 0 0 1 0"/>
<feBlend mode="normal" in2="BackgroundImageFix" result="effect1_dropShadow_2500_2124"/>
<feColorMatrix in="SourceAlpha" type="matrix" values="0 0 0 0 0 0 0 0 0 0 0 0 0 0 0 0 0 0 127 0" result="hardAlpha"/>
<feOffset dy="2"/>
<feGaussianBlur stdDeviation="1"/>
<feComposite in2="hardAlpha" operator="out"/>
<feColorMatrix type="matrix" values="0 0 0 0 1 0 0 0 0 1 0 0 0 0 1 0 0 0 0.25 0"/>
<feBlend mode="normal" in2="effect1_dropShadow_2500_2124" result="effect2_dropShadow_2500_2124"/>
<feBlend mode="normal" in="SourceGraphic" in2="effect2_dropShadow_2500_2124" result="shape"/>
<feColorMatrix in="SourceAlpha" type="matrix" values="0 0 0 0 0 0 0 0 0 0 0 0 0 0 0 0 0 0 127 0" result="hardAlpha"/>
<feOffset dy="-2"/>
<feGaussianBlur stdDeviation="0.5"/>
<feComposite in2="hardAlpha" operator="arithmetic" k2="-1" k3="1"/>
<feColorMatrix type="matrix" values="0 0 0 0 1 0 0 0 0 1 0 0 0 0 1 0 0 0 0.5 0"/>
<feBlend mode="normal" in2="shape" result="effect3_innerShadow_2500_2124"/>
</filter>
<filter id="filter4_d_2500_2124" x="61.6094" y="6.00049" width="47.0723" height="47.0684" filterUnits="userSpaceOnUse" color-interpolation-filters="sRGB">
<feFlood flood-opacity="0" result="BackgroundImageFix"/>
<feColorMatrix in="SourceAlpha" type="matrix" values="0 0 0 0 0 0 0 0 0 0 0 0 0 0 0 0 0 0 127 0" result="hardAlpha"/>
<feOffset dy="2"/>
<feGaussianBlur stdDeviation="2"/>
<feComposite in2="hardAlpha" operator="out"/>
<feColorMatrix type="matrix" values="0 0 0 0 0 0 0 0 0 0 0 0 0 0 0 0 0 0 0.5 0"/>
<feBlend mode="normal" in2="BackgroundImageFix" result="effect1_dropShadow_2500_2124"/>
<feBlend mode="normal" in="SourceGraphic" in2="effect1_dropShadow_2500_2124" result="shape"/>
</filter>
<filter id="filter5_d_2500_2124" x="61.7773" y="0" width="59.0723" height="59.0718" filterUnits="userSpaceOnUse" color-interpolation-filters="sRGB">
<feFlood flood-opacity="0" result="BackgroundImageFix"/>
<feColorMatrix in="SourceAlpha" type="matrix" values="0 0 0 0 0 0 0 0 0 0 0 0 0 0 0 0 0 0 127 0" result="hardAlpha"/>
<feOffset dy="2"/>
<feGaussianBlur stdDeviation="5"/>
<feComposite in2="hardAlpha" operator="out"/>
<feColorMatrix type="matrix" values="0 0 0 0 0 0 0 0 0 0 0 0 0 0 0 0 0 0 0.5 0"/>
<feBlend mode="normal" in2="BackgroundImageFix" result="effect1_dropShadow_2500_2124"/>
<feBlend mode="normal" in="SourceGraphic" in2="effect1_dropShadow_2500_2124" result="shape"/>
</filter>
<linearGradient id="paint0_linear_2500_2124" x1="88.4728" y1="12.4028" x2="88.4728" y2="52.1636" gradientUnits="userSpaceOnUse">
<stop offset="0.296875" stop-color="#00F0FF"/>
<stop offset="1" stop-color="#0094FF"/>
</linearGradient>
<linearGradient id="paint1_linear_2500_2124" x1="88.2711" y1="12.5682" x2="88.2711" y2="52.3088" gradientUnits="userSpaceOnUse">
<stop offset="0.398958" stop-color="#FFD600"/>
<stop offset="1" stop-color="#FF8C3D"/>
</linearGradient>
<linearGradient id="paint2_linear_2500_2124" x1="84.3254" y1="12.5006" x2="84.3254" y2="52.3047" gradientUnits="userSpaceOnUse">
<stop offset="0.270833" stop-color="#FF59EE"/>
<stop offset="1" stop-color="#7000FF"/>
</linearGradient>
<linearGradient id="paint3_linear_2500_2124" x1="83.8533" y1="12.3598" x2="83.8533" y2="52.3262" gradientUnits="userSpaceOnUse">
<stop offset="0.427083" stop-color="#B6FF1C"/>
<stop offset="1" stop-color="#41CB00"/>
</linearGradient>
<linearGradient id="paint4_linear_2500_2124" x1="65.6094" y1="12.5895" x2="74.7883" y2="12.5895" gradientUnits="userSpaceOnUse">
<stop stop-color="#0047FF"/>
<stop offset="1" stop-color="#66E7FF"/>
</linearGradient>
<linearGradient id="paint5_linear_2500_2124" x1="104.383" y1="34.1964" x2="76.7334" y2="34.1964" gradientUnits="userSpaceOnUse">
<stop stop-color="#66E7FF"/>
<stop offset="1" stop-color="white"/>
</linearGradient>
<linearGradient id="paint6_linear_2500_2124" x1="72.8216" y1="21.7675" x2="85.9343" y2="21.7675" gradientUnits="userSpaceOnUse">
<stop stop-color="#0047FF"/>
<stop offset="1" stop-color="#66E7FF"/>
</linearGradient>
<linearGradient id="paint7_linear_2500_2124" x1="85.9038" y1="47.0718" x2="85.9038" y2="21.328" gradientUnits="userSpaceOnUse">
<stop stop-color="#F4B3FF"/>
<stop offset="1" stop-color="white"/>
</linearGradient>
<linearGradient id="paint8_linear_2500_2124" x1="101.595" y1="12.6247" x2="110.849" y2="12.6247" gradientUnits="userSpaceOnUse">
<stop stop-color="#FB4AFF"/>
<stop offset="1" stop-color="#644EFF"/>
</linearGradient>
<linearGradient id="paint9_linear_2500_2124" x1="90.2871" y1="21.8784" x2="103.652" y2="21.8784" gradientUnits="userSpaceOnUse">
<stop stop-color="#FF59EE"/>
<stop offset="1" stop-color="#644EFD"/>
</linearGradient>
</defs>
</svg>
