<svg width="90" height="117" viewBox="0 0 90 117" fill="none" xmlns="http://www.w3.org/2000/svg">
<g filter="url(#filter0_ddii_2517_2351)">
<mask id="path-1-outside-1_2517_2351" maskUnits="userSpaceOnUse" x="10" y="6" width="70" height="97" fill="black">
<rect fill="white" x="10" y="6" width="70" height="97"/>
<path d="M71.114 81.52C73.0767 81.52 74.7833 82.2453 76.234 83.696C77.6847 85.1467 78.41 86.8533 78.41 88.816V94.704C78.41 96.6667 77.6847 98.3733 76.234 99.824C74.7833 101.275 73.0767 102 71.114 102H19.146C17.1833 102 15.4767 101.275 14.026 99.824C12.5753 98.3733 11.85 96.6667 11.85 94.704V88.816C11.85 84.0373 13.77 80.1547 17.61 77.168C31.69 66.416 40.8633 58.48 45.13 53.36C49.3967 48.1547 51.53 43.0347 51.53 38C51.53 31.6 47.9033 28.4 40.65 28.4C35.53 28.4 28.874 29.8507 20.682 32.752C18.9753 33.3493 17.3967 33.1787 15.946 32.24C14.4953 31.216 13.77 29.8507 13.77 28.144V19.696C13.77 17.4773 14.41 15.5147 15.69 13.808C16.97 12.016 18.634 10.864 20.682 10.352C29.0447 8.304 36.9807 7.28 44.49 7.28C55.1567 7.28 63.3487 9.79733 69.066 14.832C74.8687 19.7813 77.77 26.6507 77.77 35.44C77.77 42.4373 75.5513 49.0933 71.114 55.408C66.762 61.7227 58.1433 70.2987 45.258 81.136C45.1727 81.2213 45.13 81.3067 45.13 81.392C45.13 81.4773 45.1727 81.52 45.258 81.52H71.114Z"/>
</mask>
<path d="M71.114 81.52C73.0767 81.52 74.7833 82.2453 76.234 83.696C77.6847 85.1467 78.41 86.8533 78.41 88.816V94.704C78.41 96.6667 77.6847 98.3733 76.234 99.824C74.7833 101.275 73.0767 102 71.114 102H19.146C17.1833 102 15.4767 101.275 14.026 99.824C12.5753 98.3733 11.85 96.6667 11.85 94.704V88.816C11.85 84.0373 13.77 80.1547 17.61 77.168C31.69 66.416 40.8633 58.48 45.13 53.36C49.3967 48.1547 51.53 43.0347 51.53 38C51.53 31.6 47.9033 28.4 40.65 28.4C35.53 28.4 28.874 29.8507 20.682 32.752C18.9753 33.3493 17.3967 33.1787 15.946 32.24C14.4953 31.216 13.77 29.8507 13.77 28.144V19.696C13.77 17.4773 14.41 15.5147 15.69 13.808C16.97 12.016 18.634 10.864 20.682 10.352C29.0447 8.304 36.9807 7.28 44.49 7.28C55.1567 7.28 63.3487 9.79733 69.066 14.832C74.8687 19.7813 77.77 26.6507 77.77 35.44C77.77 42.4373 75.5513 49.0933 71.114 55.408C66.762 61.7227 58.1433 70.2987 45.258 81.136C45.1727 81.2213 45.13 81.3067 45.13 81.392C45.13 81.4773 45.1727 81.52 45.258 81.52H71.114Z" fill="url(#paint0_linear_2517_2351)"/>
<path d="M76.234 83.696L75.5269 84.4031L76.234 83.696ZM76.234 99.824L75.5269 99.1169L76.234 99.824ZM14.026 99.824L14.7331 99.1169L14.026 99.824ZM17.61 77.168L17.0031 76.3732L16.9961 76.3786L17.61 77.168ZM45.13 53.36L45.8982 54.0002L45.9034 53.9939L45.13 53.36ZM20.682 32.752L21.0124 33.6959L21.0158 33.6946L20.682 32.752ZM15.946 32.24L15.3693 33.057L15.3858 33.0686L15.4028 33.0796L15.946 32.24ZM15.69 13.808L16.49 14.408L16.497 14.3987L16.5037 14.3892L15.69 13.808ZM20.682 10.352L20.4441 9.38069L20.4395 9.38186L20.682 10.352ZM69.066 14.832L68.4051 15.5825L68.411 15.5877L68.4171 15.5928L69.066 14.832ZM71.114 55.408L70.2958 54.833L70.2906 54.8405L71.114 55.408ZM45.258 81.136L44.6143 80.3707L44.5814 80.3984L44.5509 80.4289L45.258 81.136ZM71.114 81.52V82.52C72.7984 82.52 74.2543 83.1305 75.5269 84.4031L76.234 83.696L76.9411 82.9889C75.3124 81.3602 73.355 80.52 71.114 80.52V81.52ZM76.234 83.696L75.5269 84.4031C76.7995 85.6757 77.41 87.1316 77.41 88.816H78.41H79.41C79.41 86.575 78.5698 84.6176 76.9411 82.9889L76.234 83.696ZM78.41 88.816H77.41V94.704H78.41H79.41V88.816H78.41ZM78.41 94.704H77.41C77.41 96.3884 76.7995 97.8443 75.5269 99.1169L76.234 99.824L76.9411 100.531C78.5698 98.9024 79.41 96.945 79.41 94.704H78.41ZM76.234 99.824L75.5269 99.1169C74.2543 100.389 72.7984 101 71.114 101V102V103C73.355 103 75.3124 102.16 76.9411 100.531L76.234 99.824ZM71.114 102V101H19.146V102V103H71.114V102ZM19.146 102V101C17.4616 101 16.0057 100.389 14.7331 99.1169L14.026 99.824L13.3189 100.531C14.9476 102.16 16.905 103 19.146 103V102ZM14.026 99.824L14.7331 99.1169C13.4605 97.8443 12.85 96.3884 12.85 94.704H11.85H10.85C10.85 96.945 11.6902 98.9024 13.3189 100.531L14.026 99.824ZM11.85 94.704H12.85V88.816H11.85H10.85V94.704H11.85ZM11.85 88.816H12.85C12.85 84.3524 14.6224 80.7586 18.2239 77.9574L17.61 77.168L16.9961 76.3786C12.9176 79.5508 10.85 83.7223 10.85 88.816H11.85ZM17.61 77.168L18.2169 77.9628C32.2897 67.2162 41.5499 59.2181 45.8982 54.0002L45.13 53.36L44.3618 52.7198C40.1768 57.7419 31.0903 65.6157 17.0031 76.3732L17.61 77.168ZM45.13 53.36L45.9034 53.9939C50.2671 48.6702 52.53 43.3334 52.53 38H51.53H50.53C50.53 42.7359 48.5263 47.6391 44.3566 52.7261L45.13 53.36ZM51.53 38H52.53C52.53 34.6111 51.5641 31.8964 49.4716 30.0502C47.4031 28.225 44.4022 27.4 40.65 27.4V28.4V29.4C44.1512 29.4 46.5903 30.175 48.1484 31.5498C49.6826 32.9036 50.53 34.9889 50.53 38H51.53ZM40.65 28.4V27.4C35.364 27.4 28.5834 28.8927 20.3482 31.8094L20.682 32.752L21.0158 33.6946C29.1646 30.8086 35.696 29.4 40.65 29.4V28.4ZM20.682 32.752L20.3517 31.8081C18.9209 32.3089 17.6668 32.1623 16.4893 31.4004L15.946 32.24L15.4028 33.0796C17.1266 34.195 19.0298 34.3898 21.0124 33.6959L20.682 32.752ZM15.946 32.24L16.5227 31.423C15.3247 30.5774 14.77 29.5105 14.77 28.144H13.77H12.77C12.77 30.1908 13.6659 31.8546 15.3693 33.057L15.946 32.24ZM13.77 28.144H14.77V19.696H13.77H12.77V28.144H13.77ZM13.77 19.696H14.77C14.77 17.6844 15.3453 15.9343 16.49 14.408L15.69 13.808L14.89 13.208C13.4747 15.095 12.77 17.2702 12.77 19.696H13.77ZM15.69 13.808L16.5037 14.3892C17.6521 12.7815 19.1177 11.7738 20.9245 11.3221L20.682 10.352L20.4395 9.38186C18.1503 9.95415 16.2879 11.2505 14.8763 13.2268L15.69 13.808ZM20.682 10.352L20.9199 11.3233C29.2158 9.29164 37.0715 8.28 44.49 8.28V7.28V6.28C36.8898 6.28 28.8735 7.31636 20.4441 9.3807L20.682 10.352ZM44.49 7.28V8.28C55.0103 8.28 62.932 10.7629 68.4051 15.5825L69.066 14.832L69.7269 14.0815C63.7653 8.83179 55.303 6.28 44.49 6.28V7.28ZM69.066 14.832L68.4171 15.5928C73.9618 20.3221 76.77 26.8938 76.77 35.44H77.77H78.77C78.77 26.4075 75.7756 19.2405 69.715 14.0712L69.066 14.832ZM77.77 35.44H76.77C76.77 42.2104 74.6276 48.6686 70.2958 54.8331L71.114 55.408L71.9322 55.9829C76.4751 49.518 78.77 42.6642 78.77 35.44H77.77ZM71.114 55.408L70.2906 54.8405C66.0207 61.0361 57.4928 69.5392 44.6143 80.3707L45.258 81.136L45.9017 81.9013C58.7939 71.0582 67.5033 62.4092 71.9374 55.9755L71.114 55.408ZM45.258 81.136L44.5509 80.4289C44.3566 80.6232 44.13 80.9479 44.13 81.392H45.13H46.13C46.13 81.6654 45.9888 81.8195 45.9651 81.8431L45.258 81.136ZM45.13 81.392H44.13C44.13 81.5888 44.1799 81.9201 44.4549 82.1951C44.7299 82.4701 45.0612 82.52 45.258 82.52V81.52V80.52C45.3695 80.52 45.6368 80.5485 45.8691 80.7809C46.1015 81.0132 46.13 81.2805 46.13 81.392H45.13ZM45.258 81.52V82.52H71.114V81.52V80.52H45.258V81.52Z" fill="url(#paint1_linear_2517_2351)" mask="url(#path-1-outside-1_2517_2351)"/>
</g>
<defs>
<filter id="filter0_ddii_2517_2351" x="0.849609" y="0.279785" width="88.5605" height="116.72" filterUnits="userSpaceOnUse" color-interpolation-filters="sRGB">
<feFlood flood-opacity="0" result="BackgroundImageFix"/>
<feColorMatrix in="SourceAlpha" type="matrix" values="0 0 0 0 0 0 0 0 0 0 0 0 0 0 0 0 0 0 127 0" result="hardAlpha"/>
<feOffset dy="4"/>
<feGaussianBlur stdDeviation="5"/>
<feComposite in2="hardAlpha" operator="out"/>
<feColorMatrix type="matrix" values="0 0 0 0 0 0 0 0 0 0 0 0 0 0 0 0 0 0 0.3 0"/>
<feBlend mode="normal" in2="BackgroundImageFix" result="effect1_dropShadow_2517_2351"/>
<feColorMatrix in="SourceAlpha" type="matrix" values="0 0 0 0 0 0 0 0 0 0 0 0 0 0 0 0 0 0 127 0" result="hardAlpha"/>
<feOffset dy="4"/>
<feComposite in2="hardAlpha" operator="out"/>
<feColorMatrix type="matrix" values="0 0 0 0 0.241347 0 0 0 0 0.720873 0 0 0 0 1 0 0 0 1 0"/>
<feBlend mode="normal" in2="effect1_dropShadow_2517_2351" result="effect2_dropShadow_2517_2351"/>
<feBlend mode="normal" in="SourceGraphic" in2="effect2_dropShadow_2517_2351" result="shape"/>
<feColorMatrix in="SourceAlpha" type="matrix" values="0 0 0 0 0 0 0 0 0 0 0 0 0 0 0 0 0 0 127 0" result="hardAlpha"/>
<feOffset dy="4"/>
<feGaussianBlur stdDeviation="2"/>
<feComposite in2="hardAlpha" operator="arithmetic" k2="-1" k3="1"/>
<feColorMatrix type="matrix" values="0 0 0 0 1 0 0 0 0 1 0 0 0 0 1 0 0 0 0.45 0"/>
<feBlend mode="normal" in2="shape" result="effect3_innerShadow_2517_2351"/>
<feColorMatrix in="SourceAlpha" type="matrix" values="0 0 0 0 0 0 0 0 0 0 0 0 0 0 0 0 0 0 127 0" result="hardAlpha"/>
<feOffset dy="-5"/>
<feGaussianBlur stdDeviation="2"/>
<feComposite in2="hardAlpha" operator="arithmetic" k2="-1" k3="1"/>
<feColorMatrix type="matrix" values="0 0 0 0 0 0 0 0 0 0 0 0 0 0 0 0 0 0 0.05 0"/>
<feBlend mode="normal" in2="effect3_innerShadow_2517_2351" result="effect4_innerShadow_2517_2351"/>
</filter>
<linearGradient id="paint0_linear_2517_2351" x1="44.5" y1="10" x2="44.5" y2="103" gradientUnits="userSpaceOnUse">
<stop stop-color="#00F0FF"/>
<stop offset="1" stop-color="#0094FF"/>
</linearGradient>
<linearGradient id="paint1_linear_2517_2351" x1="44.5" y1="-41" x2="44.5" y2="149" gradientUnits="userSpaceOnUse">
<stop stop-color="#00F0FF"/>
<stop offset="1" stop-color="#0094FF"/>
</linearGradient>
</defs>
</svg>
