<svg width="89" height="118" viewBox="0 0 89 118" fill="none" xmlns="http://www.w3.org/2000/svg">
<g filter="url(#filter0_ddii_2517_1917)">
<mask id="path-1-outside-1_2517_1917" maskUnits="userSpaceOnUse" x="10" y="6" width="69" height="98" fill="black">
<rect fill="white" x="10" y="6" width="69" height="98"/>
<path d="M53.45 45.96C60.4473 45.96 66.122 48.3067 70.474 53C74.9113 57.608 77.13 63.7947 77.13 71.56C77.13 81.544 74.058 89.1813 67.914 94.472C61.77 99.6773 52.8953 102.28 41.29 102.28C33.9513 102.28 26.5273 101.427 19.018 99.72C16.8847 99.2933 15.1353 98.2267 13.77 96.52C12.49 94.728 11.85 92.7227 11.85 90.504V83.336C11.85 81.544 12.5753 80.1787 14.026 79.24C15.4767 78.216 17.0553 77.96 18.762 78.472C26.2713 80.8613 32.9273 82.056 38.73 82.056C43.082 82.056 46.41 81.2027 48.714 79.496C51.018 77.704 52.17 75.272 52.17 72.2C52.17 68.616 50.762 66.1413 47.946 64.776C45.2153 63.4107 39.6687 62.6853 31.306 62.6C29.3433 62.6 27.6367 61.8747 26.186 60.424C24.7353 58.9733 24.01 57.2667 24.01 55.304V53.256C24.01 48.392 25.8873 44.424 29.642 41.352L45.642 28.424C45.7273 28.3387 45.77 28.2533 45.77 28.168C45.77 28.0827 45.7273 28.04 45.642 28.04H18.506C16.5433 28.04 14.8367 27.3147 13.386 25.864C11.9353 24.4133 11.21 22.7067 11.21 20.744V14.856C11.21 12.8933 11.9353 11.1867 13.386 9.73599C14.8367 8.28533 16.5433 7.56 18.506 7.56H68.554C70.5167 7.56 72.2233 8.28533 73.674 9.73599C75.1247 11.1867 75.85 12.8933 75.85 14.856V20.744C75.85 25.6933 73.93 29.576 70.09 32.392L52.298 45.576C52.2127 45.6613 52.17 45.7467 52.17 45.832C52.17 45.9173 52.2127 45.96 52.298 45.96H53.45Z"/>
</mask>
<path d="M53.45 45.96C60.4473 45.96 66.122 48.3067 70.474 53C74.9113 57.608 77.13 63.7947 77.13 71.56C77.13 81.544 74.058 89.1813 67.914 94.472C61.77 99.6773 52.8953 102.28 41.29 102.28C33.9513 102.28 26.5273 101.427 19.018 99.72C16.8847 99.2933 15.1353 98.2267 13.77 96.52C12.49 94.728 11.85 92.7227 11.85 90.504V83.336C11.85 81.544 12.5753 80.1787 14.026 79.24C15.4767 78.216 17.0553 77.96 18.762 78.472C26.2713 80.8613 32.9273 82.056 38.73 82.056C43.082 82.056 46.41 81.2027 48.714 79.496C51.018 77.704 52.17 75.272 52.17 72.2C52.17 68.616 50.762 66.1413 47.946 64.776C45.2153 63.4107 39.6687 62.6853 31.306 62.6C29.3433 62.6 27.6367 61.8747 26.186 60.424C24.7353 58.9733 24.01 57.2667 24.01 55.304V53.256C24.01 48.392 25.8873 44.424 29.642 41.352L45.642 28.424C45.7273 28.3387 45.77 28.2533 45.77 28.168C45.77 28.0827 45.7273 28.04 45.642 28.04H18.506C16.5433 28.04 14.8367 27.3147 13.386 25.864C11.9353 24.4133 11.21 22.7067 11.21 20.744V14.856C11.21 12.8933 11.9353 11.1867 13.386 9.73599C14.8367 8.28533 16.5433 7.56 18.506 7.56H68.554C70.5167 7.56 72.2233 8.28533 73.674 9.73599C75.1247 11.1867 75.85 12.8933 75.85 14.856V20.744C75.85 25.6933 73.93 29.576 70.09 32.392L52.298 45.576C52.2127 45.6613 52.17 45.7467 52.17 45.832C52.17 45.9173 52.2127 45.96 52.298 45.96H53.45Z" fill="url(#paint0_linear_2517_1917)"/>
<path d="M70.474 53L69.7407 53.6799L69.7471 53.6869L69.7537 53.6936L70.474 53ZM67.914 94.472L68.5604 95.235L68.5665 95.2298L67.914 94.472ZM19.018 99.72L19.2396 98.7449L19.2269 98.742L19.2141 98.7394L19.018 99.72ZM13.77 96.52L12.9563 97.1012L12.9721 97.1234L12.9891 97.1447L13.77 96.52ZM14.026 79.24L14.5693 80.0796L14.5862 80.0686L14.6027 80.057L14.026 79.24ZM18.762 78.472L19.0652 77.5191L19.0573 77.5166L19.0493 77.5142L18.762 78.472ZM48.714 79.496L49.3092 80.2996L49.3187 80.2926L49.3279 80.2853L48.714 79.496ZM47.946 64.776L47.4988 65.6705L47.5097 65.6758L47.946 64.776ZM31.306 62.6L31.3162 61.6H31.306V62.6ZM26.186 60.424L25.4789 61.1311H25.4789L26.186 60.424ZM29.642 41.352L29.0135 40.5742L29.0088 40.578L29.642 41.352ZM45.642 28.424L46.2705 29.2018L46.3117 29.1685L46.3491 29.1311L45.642 28.424ZM13.386 25.864L12.6789 26.5711H12.6789L13.386 25.864ZM13.386 9.73599L12.6789 9.02888H12.6789L13.386 9.73599ZM73.674 9.73599L74.3811 9.02888L73.674 9.73599ZM70.09 32.392L69.4986 31.5856L69.4946 31.5885L70.09 32.392ZM52.298 45.576L51.7026 44.7725L51.6432 44.8166L51.5909 44.8689L52.298 45.576ZM53.45 45.96V46.96C60.1979 46.96 65.5968 49.211 69.7407 53.6799L70.474 53L71.2073 52.3201C66.6472 47.4024 60.6967 44.96 53.45 44.96V45.96ZM70.474 53L69.7537 53.6936C73.9746 58.0769 76.13 63.9947 76.13 71.56H77.13H78.13C78.13 63.5946 75.848 57.1391 71.1943 52.3064L70.474 53ZM77.13 71.56H76.13C76.13 81.3261 73.1348 88.6566 67.2615 93.7142L67.914 94.472L68.5665 95.2298C74.9812 89.706 78.13 81.7618 78.13 71.56H77.13ZM67.914 94.472L67.2676 93.709C61.3694 98.7061 52.761 101.28 41.29 101.28V102.28V103.28C53.0297 103.28 62.1706 100.649 68.5604 95.235L67.914 94.472ZM41.29 102.28V101.28C34.0295 101.28 26.6798 100.436 19.2396 98.7449L19.018 99.72L18.7964 100.695C26.3749 102.418 33.8732 103.28 41.29 103.28V102.28ZM19.018 99.72L19.2141 98.7394C17.3127 98.3591 15.77 97.4192 14.5509 95.8953L13.77 96.52L12.9891 97.1447C14.5007 99.0342 16.4567 100.228 18.8219 100.701L19.018 99.72ZM13.77 96.52L14.5837 95.9388C13.4258 94.3177 12.85 92.5159 12.85 90.504H11.85H10.85C10.85 92.9294 11.5542 95.1383 12.9563 97.1012L13.77 96.52ZM11.85 90.504H12.85V83.336H11.85H10.85V90.504H11.85ZM11.85 83.336H12.85C12.85 81.868 13.4159 80.8259 14.5693 80.0796L14.026 79.24L13.4827 78.4004C11.7348 79.5315 10.85 81.22 10.85 83.336H11.85ZM14.026 79.24L14.6027 80.057C15.8013 79.2109 17.0611 79.0058 18.4747 79.4298L18.762 78.472L19.0493 77.5142C17.0495 76.9142 15.1521 77.2211 13.4493 78.423L14.026 79.24ZM18.762 78.472L18.4588 79.4249C26.0336 81.8351 32.7951 83.056 38.73 83.056V82.056V81.056C33.0596 81.056 26.5091 79.8876 19.0652 77.5191L18.762 78.472ZM38.73 82.056V83.056C43.1915 83.056 46.7644 82.1846 49.3092 80.2996L48.714 79.496L48.1188 78.6924C46.0556 80.2207 42.9725 81.056 38.73 81.056V82.056ZM48.714 79.496L49.3279 80.2853C51.89 78.2926 53.17 75.5618 53.17 72.2H52.17H51.17C51.17 74.9822 50.146 77.1153 48.1001 78.7066L48.714 79.496ZM52.17 72.2H53.17C53.17 70.2788 52.7924 68.5838 51.9832 67.1615C51.1693 65.731 49.9534 64.6379 48.3823 63.8762L47.946 64.776L47.5097 65.6758C48.7546 66.2794 49.6507 67.1063 50.2448 68.1505C50.8436 69.2029 51.17 70.5372 51.17 72.2H52.17ZM47.946 64.776L48.3932 63.8816C46.8772 63.1236 44.6755 62.5836 41.8677 62.2164C39.0405 61.8467 35.52 61.6429 31.3162 61.6001L31.306 62.6L31.2958 63.5999C35.4547 63.6424 38.8888 63.8439 41.6083 64.1996C44.3471 64.5577 46.2841 65.0631 47.4988 65.6704L47.946 64.776ZM31.306 62.6V61.6C29.6216 61.6 28.1657 60.9895 26.8931 59.7169L26.186 60.424L25.4789 61.1311C27.1076 62.7598 29.065 63.6 31.306 63.6V62.6ZM26.186 60.424L26.8931 59.7169C25.6205 58.4443 25.01 56.9884 25.01 55.304H24.01H23.01C23.01 57.545 23.8502 59.5024 25.4789 61.1311L26.186 60.424ZM24.01 55.304H25.01V53.256H24.01H23.01V55.304H24.01ZM24.01 53.256H25.01C25.01 48.691 26.7534 45.0074 30.2752 42.126L29.642 41.352L29.0088 40.578C25.0213 43.8406 23.01 48.093 23.01 53.256H24.01ZM29.642 41.352L30.2705 42.1298L46.2705 29.2018L45.642 28.424L45.0135 27.6462L29.0135 40.5742L29.642 41.352ZM45.642 28.424L46.3491 29.1311C46.5434 28.9368 46.77 28.6121 46.77 28.168H45.77H44.77C44.77 27.8946 44.9112 27.7406 44.9349 27.7169L45.642 28.424ZM45.77 28.168H46.77C46.77 27.9712 46.7201 27.6399 46.4451 27.3649C46.1701 27.0899 45.8388 27.04 45.642 27.04V28.04V29.04C45.5305 29.04 45.2632 29.0114 45.0309 28.7791C44.7985 28.5467 44.77 28.2795 44.77 28.168H45.77ZM45.642 28.04V27.04H18.506V28.04V29.04H45.642V28.04ZM18.506 28.04V27.04C16.8216 27.04 15.3657 26.4295 14.0931 25.1569L13.386 25.864L12.6789 26.5711C14.3076 28.1998 16.265 29.04 18.506 29.04V28.04ZM13.386 25.864L14.0931 25.1569C12.8205 23.8843 12.21 22.4284 12.21 20.744H11.21H10.21C10.21 22.985 11.0502 24.9424 12.6789 26.5711L13.386 25.864ZM11.21 20.744H12.21V14.856H11.21H10.21V20.744H11.21ZM11.21 14.856H12.21C12.21 13.1716 12.8205 11.7157 14.0931 10.4431L13.386 9.73599L12.6789 9.02888C11.0502 10.6576 10.21 12.615 10.21 14.856H11.21ZM13.386 9.73599L14.0931 10.4431C15.3657 9.17051 16.8216 8.56 18.506 8.56V7.56V6.56C16.265 6.56 14.3076 7.40015 12.6789 9.02888L13.386 9.73599ZM18.506 7.56V8.56H68.554V7.56V6.56H18.506V7.56ZM68.554 7.56V8.56C70.2384 8.56 71.6943 9.17051 72.9669 10.4431L73.674 9.73599L74.3811 9.02888C72.7524 7.40015 70.795 6.56 68.554 6.56V7.56ZM73.674 9.73599L72.9669 10.4431C74.2395 11.7157 74.85 13.1716 74.85 14.856H75.85H76.85C76.85 12.615 76.0098 10.6576 74.3811 9.02888L73.674 9.73599ZM75.85 14.856H74.85V20.744H75.85H76.85V14.856H75.85ZM75.85 20.744H74.85C74.85 25.3895 73.0701 28.9665 69.4986 31.5856L70.09 32.392L70.6814 33.1984C74.7899 30.1855 76.85 25.9971 76.85 20.744H75.85ZM70.09 32.392L69.4946 31.5885L51.7026 44.7725L52.298 45.576L52.8934 46.3794L70.6854 33.1954L70.09 32.392ZM52.298 45.576L51.5909 44.8689C51.3966 45.0632 51.17 45.3879 51.17 45.832H52.17H53.17C53.17 46.1054 53.0288 46.2594 53.0051 46.2831L52.298 45.576ZM52.17 45.832H51.17C51.17 46.0288 51.2199 46.3601 51.4949 46.6351C51.7699 46.9101 52.1012 46.96 52.298 46.96V45.96V44.96C52.4095 44.96 52.6768 44.9885 52.9091 45.2209C53.1415 45.4532 53.17 45.7205 53.17 45.832H52.17ZM52.298 45.96V46.96H53.45V45.96V44.96H52.298V45.96Z" fill="url(#paint1_linear_2517_1917)" mask="url(#path-1-outside-1_2517_1917)"/>
</g>
<defs>
<filter id="filter0_ddii_2517_1917" x="0.210938" y="0.560059" width="87.9199" height="116.72" filterUnits="userSpaceOnUse" color-interpolation-filters="sRGB">
<feFlood flood-opacity="0" result="BackgroundImageFix"/>
<feColorMatrix in="SourceAlpha" type="matrix" values="0 0 0 0 0 0 0 0 0 0 0 0 0 0 0 0 0 0 127 0" result="hardAlpha"/>
<feOffset dy="4"/>
<feGaussianBlur stdDeviation="5"/>
<feComposite in2="hardAlpha" operator="out"/>
<feColorMatrix type="matrix" values="0 0 0 0 0 0 0 0 0 0 0 0 0 0 0 0 0 0 0.3 0"/>
<feBlend mode="normal" in2="BackgroundImageFix" result="effect1_dropShadow_2517_1917"/>
<feColorMatrix in="SourceAlpha" type="matrix" values="0 0 0 0 0 0 0 0 0 0 0 0 0 0 0 0 0 0 127 0" result="hardAlpha"/>
<feOffset dy="4"/>
<feComposite in2="hardAlpha" operator="out"/>
<feColorMatrix type="matrix" values="0 0 0 0 0.878431 0 0 0 0 0.356863 0 0 0 0 0 0 0 0 1 0"/>
<feBlend mode="normal" in2="effect1_dropShadow_2517_1917" result="effect2_dropShadow_2517_1917"/>
<feBlend mode="normal" in="SourceGraphic" in2="effect2_dropShadow_2517_1917" result="shape"/>
<feColorMatrix in="SourceAlpha" type="matrix" values="0 0 0 0 0 0 0 0 0 0 0 0 0 0 0 0 0 0 127 0" result="hardAlpha"/>
<feOffset dy="4"/>
<feGaussianBlur stdDeviation="2"/>
<feComposite in2="hardAlpha" operator="arithmetic" k2="-1" k3="1"/>
<feColorMatrix type="matrix" values="0 0 0 0 1 0 0 0 0 1 0 0 0 0 1 0 0 0 0.45 0"/>
<feBlend mode="normal" in2="shape" result="effect3_innerShadow_2517_1917"/>
<feColorMatrix in="SourceAlpha" type="matrix" values="0 0 0 0 0 0 0 0 0 0 0 0 0 0 0 0 0 0 127 0" result="hardAlpha"/>
<feOffset dy="-5"/>
<feGaussianBlur stdDeviation="2"/>
<feComposite in2="hardAlpha" operator="arithmetic" k2="-1" k3="1"/>
<feColorMatrix type="matrix" values="0 0 0 0 0 0 0 0 0 0 0 0 0 0 0 0 0 0 0.05 0"/>
<feBlend mode="normal" in2="effect3_innerShadow_2517_1917" result="effect4_innerShadow_2517_1917"/>
</filter>
<linearGradient id="paint0_linear_2517_1917" x1="44.5" y1="9" x2="44.5" y2="102" gradientUnits="userSpaceOnUse">
<stop stop-color="#FFD410"/>
<stop offset="1" stop-color="#FF8E00"/>
</linearGradient>
<linearGradient id="paint1_linear_2517_1917" x1="44.5" y1="-42" x2="44.5" y2="148" gradientUnits="userSpaceOnUse">
<stop stop-color="#FFE46D"/>
<stop offset="1" stop-color="#FFB800"/>
</linearGradient>
</defs>
</svg>
