<svg width="124" height="102" viewBox="0 0 124 102" fill="none" xmlns="http://www.w3.org/2000/svg">
<g clip-path="url(#clip0_4768_1788)">
<rect x="11" width="102" height="102" rx="51" fill="url(#paint0_linear_4768_1788)"/>
<path d="M66.6586 34.0095C66.4756 28.8924 64.4463 26.3948 63.4546 25.7857C66.8875 24.415 68.7184 25.7857 71.2359 28.0701C73.7533 30.3544 78.3306 35.1517 78.1017 31.0398C77.9186 27.7502 79.0934 25.2526 79.7037 24.415C82.267 32.0906 86.2371 34.7709 88.5257 35.1517C81.7362 43.9085 68.8557 60.417 66.6586 56.3965C63.9123 51.3708 66.8875 40.4058 66.6586 34.0095Z" fill="#EB672E"/>
<path d="M66.406 18.7777C62.9337 18.4006 62.5225 13.4354 62.7509 11C62.7509 11.4714 64.5785 13.5926 67.0913 14.064C69.6042 14.5353 70.7463 19.2491 66.406 18.7777Z" fill="#EB672E"/>
<path d="M25.1581 48.7044C22.2609 37.6473 22.8947 30.2003 23.5737 27.859C26.833 33.4782 29.7606 32.9193 30.8169 31.9374C35.5702 16.5299 25.1581 19.0223 29.6852 17.4362C33.3068 16.1674 38.2864 23.1008 40.3235 26.7261C40.3235 26.7261 44.3977 19.9286 44.1714 23.3273C43.945 26.7261 48.2456 30.5779 52.0935 33.9767C55.1718 36.6956 56.3941 40.5475 56.6204 42.1336L50.2827 39.6412L34.2121 47.345C32.4013 52.4053 28.0554 59.7616 25.1581 48.7044Z" fill="#EB672E"/>
<g filter="url(#filter0_i_4768_1788)">
<path d="M40.1938 32.9717C41.753 34.1666 43.5832 35.3091 45.6118 36.3115C49.0306 38.0008 52.4211 39.0002 55.2456 39.2861C57.5578 42.4907 58.8276 46.5139 58.8276 50.5166C58.8276 58.356 53.1494 64.8773 45.6519 66.2549C43.5253 63.893 40.7891 61.5762 37.5884 59.5508C34.0093 57.2859 30.3508 55.7002 27.0083 54.834C26.7125 53.4605 26.5659 52.0126 26.5659 50.5166C26.5659 42.5204 32.4737 34.4426 40.1938 32.9717Z" fill="white"/>
</g>
<g filter="url(#filter1_i_4768_1788)">
<path d="M83.375 32.9717C81.8159 34.1666 79.9857 35.3091 77.957 36.3115C74.5383 38.0008 71.1478 39.0002 68.3232 39.2861C66.0111 42.4907 64.7412 46.5139 64.7412 50.5166C64.7412 58.356 70.4194 64.8773 77.917 66.2549C80.0435 63.893 82.7798 61.5762 85.9805 59.5508C89.5596 57.2859 93.2181 55.7002 96.5605 54.834C96.8564 53.4605 97.0029 52.0126 97.0029 50.5166C97.0029 42.5204 91.0952 34.4426 83.375 32.9717Z" fill="white"/>
</g>
<g style="mix-blend-mode:soft-light" opacity="0.2">
<path d="M120.172 62.4221C120.172 94.5127 94.1274 120.527 62 120.527C29.8726 120.527 3.82812 94.5127 3.82812 62.4221C3.82812 30.3314 29.8726 -26.0977 62 -26.0977C94.1274 -26.0977 120.172 30.3314 120.172 62.4221Z" fill="white"/>
</g>
<g style="mix-blend-mode:soft-light" opacity="0.2">
<path d="M113 60.5625C113 88.729 90.1665 111.562 62 111.562C33.8335 111.562 11 88.729 11 60.5625C11 32.396 33.8335 -17.1328 62 -17.1328C90.1665 -17.1328 113 32.396 113 60.5625Z" fill="white"/>
</g>
<g style="mix-blend-mode:soft-light" opacity="0.2">
<path d="M102.641 57.8764C102.641 80.3748 84.4452 98.6133 62 98.6133C39.5548 98.6133 21.3594 80.3748 21.3594 57.8764C21.3594 35.3781 39.5548 -4.18359 62 -4.18359C84.4452 -4.18359 102.641 35.3781 102.641 57.8764Z" fill="white"/>
</g>
<path d="M45.584 40.5449C49.9136 40.5451 51.6962 44.4607 51.6963 49.29C51.6963 54.1195 50.7626 58.034 45.584 58.0342C40.8298 58.0341 39.4707 54.1195 39.4707 49.29C39.4707 47.617 39.6848 46.0535 40.1445 44.7246C40.4681 45.1752 40.9957 45.4697 41.5928 45.4697C42.5773 45.4695 43.375 44.6711 43.375 43.6865V43.1768C43.3748 42.4506 42.9404 41.8266 42.3174 41.5488C43.1847 40.908 44.2664 40.545 45.584 40.5449Z" fill="#A34500"/>
<path d="M78.4893 40.5449C82.8191 40.5449 84.6025 44.4606 84.6025 49.29C84.6025 54.1196 83.6681 58.0342 78.4893 58.0342C73.7355 58.0337 72.377 54.1193 72.377 49.29C72.377 47.6165 72.5918 46.0527 73.0518 44.7236C73.3752 45.1747 73.9027 45.4696 74.5 45.4697C75.4847 45.4697 76.2832 44.6712 76.2832 43.6865V43.1768C76.283 42.4502 75.8482 41.8254 75.2246 41.5479C76.0914 40.9076 77.1725 40.5451 78.4893 40.5449Z" fill="#A34500"/>
<path d="M69.3574 72.5469C69.3574 72.5469 64.2712 79.5469 61.8574 79.5469C59.4436 79.5469 54.3574 72.5469 54.3574 72.5469C54.3574 72.5469 57.7153 65.5469 61.8574 65.5469C65.9996 65.5469 69.3574 72.5469 69.3574 72.5469Z" fill="#A34500"/>
<path d="M60.768 72.4416C59.1978 72.2439 55.6939 71.7912 52.388 71.2837C50.8061 71.0409 50.8452 68.9313 52.3275 68.3277C55.3299 67.1052 57.9213 65.4036 59.598 64.1631C60.788 63.2828 62.4627 63.2565 63.6775 64.1022C65.428 65.3208 68.1649 67.011 71.387 68.2471C72.9185 68.8347 72.9437 71.1036 71.3191 71.3302C67.7628 71.8262 64.0769 72.2632 62.4604 72.4502C61.8936 72.5158 61.3341 72.5128 60.768 72.4416Z" fill="#EB672E"/>
<path d="M60.0596 76.4629L53.0792 69.9953C52.6835 69.6286 52.1013 70.1567 52.4279 70.5862L59.8096 80.2973C60.6783 81.4401 62.3896 81.4626 63.2879 80.3429L71.1942 70.4892C71.5318 70.0685 70.9642 69.5254 70.5588 69.8812L63.0154 76.5027C62.1655 77.2487 60.8891 77.2316 60.0596 76.4629Z" fill="#EB672E"/>
<g style="mix-blend-mode:overlay">
<path d="M63.5752 66.957C64.2143 67.392 65.6459 68.3181 66.2593 68.5431" stroke="white" stroke-width="2.20695" stroke-linecap="round"/>
</g>
</g>
<path d="M72.5 80C83.9697 80.3333 103 81.5 112 62" stroke="#EB672E" stroke-width="4" stroke-linecap="round"/>
<ellipse cx="73.5" cy="80" rx="5.5" ry="5" fill="#A34500"/>
<path d="M115 46C115 44.3431 116.343 43 118 43C121.314 43 124 45.6863 124 49V51C124 54.3137 121.314 57 118 57C116.343 57 115 55.6569 115 54V46Z" fill="#A34500"/>
<path d="M106 39.6667C106 37.0893 108.089 35 110.667 35C115.821 35 120 39.1787 120 44.3333V55.6667C120 60.8213 115.821 65 110.667 65C108.089 65 106 62.9107 106 60.3333V39.6667Z" fill="#EB672E"/>
<path d="M9 47C9 45.3431 7.65685 44 6 44C2.68629 44 0 46.6863 0 50V52C0 55.3137 2.68629 58 6 58C7.65685 58 9 56.6569 9 55V47Z" fill="#A34500"/>
<path d="M18 40.6667C18 38.0893 15.9107 36 13.3333 36C8.17868 36 4 40.1787 4 45.3333V56.6667C4 61.8213 8.17868 66 13.3333 66C15.9107 66 18 63.9107 18 61.3333V40.6667Z" fill="#EB672E"/>
<defs>
<filter id="filter0_i_4768_1788" x="26.5659" y="32.9717" width="32.2617" height="33.2832" filterUnits="userSpaceOnUse" color-interpolation-filters="sRGB">
<feFlood flood-opacity="0" result="BackgroundImageFix"/>
<feBlend mode="normal" in="SourceGraphic" in2="BackgroundImageFix" result="shape"/>
<feColorMatrix in="SourceAlpha" type="matrix" values="0 0 0 0 0 0 0 0 0 0 0 0 0 0 0 0 0 0 127 0" result="hardAlpha"/>
<feOffset dx="-2.20695"/>
<feComposite in2="hardAlpha" operator="arithmetic" k2="-1" k3="1"/>
<feColorMatrix type="matrix" values="0 0 0 0 0 0 0 0 0 0 0 0 0 0 0 0 0 0 0.05 0"/>
<feBlend mode="normal" in2="shape" result="effect1_innerShadow_4768_1788"/>
</filter>
<filter id="filter1_i_4768_1788" x="64.7412" y="32.9717" width="32.2617" height="33.2832" filterUnits="userSpaceOnUse" color-interpolation-filters="sRGB">
<feFlood flood-opacity="0" result="BackgroundImageFix"/>
<feBlend mode="normal" in="SourceGraphic" in2="BackgroundImageFix" result="shape"/>
<feColorMatrix in="SourceAlpha" type="matrix" values="0 0 0 0 0 0 0 0 0 0 0 0 0 0 0 0 0 0 127 0" result="hardAlpha"/>
<feOffset dx="-2.20695"/>
<feComposite in2="hardAlpha" operator="arithmetic" k2="-1" k3="1"/>
<feColorMatrix type="matrix" values="0 0 0 0 0 0 0 0 0 0 0 0 0 0 0 0 0 0 0.05 0"/>
<feBlend mode="normal" in2="shape" result="effect1_innerShadow_4768_1788"/>
</filter>
<linearGradient id="paint0_linear_4768_1788" x1="62" y1="0" x2="62" y2="102" gradientUnits="userSpaceOnUse">
<stop stop-color="#FFE55B"/>
<stop offset="1" stop-color="#FFA800"/>
</linearGradient>
<clipPath id="clip0_4768_1788">
<rect x="11" width="102" height="102" rx="51" fill="white"/>
</clipPath>
</defs>
</svg>
