<svg width="155" height="110" viewBox="0 0 155 110" fill="none" xmlns="http://www.w3.org/2000/svg">
<g filter="url(#filter0_ddi_4710_1984)">
<mask id="path-1-inside-1_4710_1984" fill="white">
<path d="M55.3398 22.7881C64.2433 22.7881 71.8166 28.4793 74.623 36.4219L113.759 36.4219C117.523 36.422 120.574 39.4733 120.574 43.2373C120.574 47.0014 117.522 50.0527 113.758 50.0527L113.758 55.1621C113.758 57.9851 111.469 60.2734 108.646 60.2734C105.823 60.2732 103.534 57.985 103.534 55.1621L103.534 50.0527L100.126 50.0527L100.126 51.7549C100.126 54.5779 97.8377 56.8662 95.0146 56.8662C92.1916 56.8662 89.9034 54.578 89.9033 51.7549L89.9033 50.0527L74.6221 50.0527C71.8144 57.9929 64.2415 63.6816 55.3398 63.6816L54.8125 63.6748C43.764 63.3949 34.8936 54.3503 34.8936 43.2344C34.8938 31.9423 44.0478 22.7883 55.3398 22.7881ZM55.3398 36.2637C51.4901 36.2639 48.3694 39.3847 48.3691 43.2344C48.3691 47.0843 51.49 50.2058 55.3398 50.2061C59.0695 50.2061 62.1159 47.277 62.3027 43.5938L62.3115 43.2344L62.3027 42.876C62.122 39.3115 59.2636 36.4532 55.6992 36.2725L55.3398 36.2637Z"/>
</mask>
<path d="M55.3398 22.7881C64.2433 22.7881 71.8166 28.4793 74.623 36.4219L113.759 36.4219C117.523 36.422 120.574 39.4733 120.574 43.2373C120.574 47.0014 117.522 50.0527 113.758 50.0527L113.758 55.1621C113.758 57.9851 111.469 60.2734 108.646 60.2734C105.823 60.2732 103.534 57.985 103.534 55.1621L103.534 50.0527L100.126 50.0527L100.126 51.7549C100.126 54.5779 97.8377 56.8662 95.0146 56.8662C92.1916 56.8662 89.9034 54.578 89.9033 51.7549L89.9033 50.0527L74.6221 50.0527C71.8144 57.9929 64.2415 63.6816 55.3398 63.6816L54.8125 63.6748C43.764 63.3949 34.8936 54.3503 34.8936 43.2344C34.8938 31.9423 44.0478 22.7883 55.3398 22.7881ZM55.3398 36.2637C51.4901 36.2639 48.3694 39.3847 48.3691 43.2344C48.3691 47.0843 51.49 50.2058 55.3398 50.2061C59.0695 50.2061 62.1159 47.277 62.3027 43.5938L62.3115 43.2344L62.3027 42.876C62.122 39.3115 59.2636 36.4532 55.6992 36.2725L55.3398 36.2637Z" fill="#FFBA08"/>
<path d="M55.3398 22.7881L55.3398 21.6543L55.3398 21.6543L55.3398 22.7881ZM74.623 36.4219L73.554 36.7996L73.8212 37.5556L74.623 37.5556L74.623 36.4219ZM113.759 36.4219L113.759 35.2881L113.759 35.2881L113.759 36.4219ZM120.574 43.2373L121.708 43.2373L121.708 43.2373L120.574 43.2373ZM113.758 50.0527L113.758 48.919L112.624 48.919L112.624 50.0527L113.758 50.0527ZM113.758 55.1621L114.892 55.1622L114.892 55.1621L113.758 55.1621ZM108.646 60.2734L108.645 61.4072L108.646 61.4072L108.646 60.2734ZM103.534 55.1621L102.4 55.1621L102.4 55.1622L103.534 55.1621ZM103.534 50.0527L104.668 50.0527L104.668 48.919L103.534 48.919L103.534 50.0527ZM100.126 50.0527L100.126 48.919L98.9922 48.919L98.9922 50.0527L100.126 50.0527ZM100.126 51.7549L101.26 51.7549L101.26 51.7549L100.126 51.7549ZM95.0146 56.8662L95.0146 58L95.0147 58L95.0146 56.8662ZM89.9033 51.7549L88.7695 51.7549L88.7695 51.7549L89.9033 51.7549ZM89.9033 50.0527L91.0371 50.0527L91.0371 48.919L89.9033 48.919L89.9033 50.0527ZM74.6221 50.0527L74.6221 48.919L73.8204 48.919L73.5532 49.6748L74.6221 50.0527ZM55.3398 63.6816L55.3251 64.8153L55.3325 64.8154L55.3398 64.8154L55.3398 63.6816ZM54.8125 63.6748L54.7838 64.8083L54.7978 64.8085L54.8125 63.6748ZM34.8936 43.2344L33.7598 43.2344L33.7598 43.2344L34.8936 43.2344ZM55.3398 36.2637L55.3676 35.1302L55.3537 35.1299L55.3398 35.1299L55.3398 36.2637ZM48.3691 43.2344L47.2354 43.2343L47.2354 43.2344L48.3691 43.2344ZM55.3398 50.2061L55.3398 51.3398L55.3398 51.3398L55.3398 50.2061ZM62.3027 43.5938L63.4351 43.6512L63.4358 43.6363L63.4362 43.6215L62.3027 43.5938ZM62.3115 43.2344L63.445 43.2621L63.4456 43.2343L63.445 43.2066L62.3115 43.2344ZM62.3027 42.876L63.4362 42.8482L63.4358 42.8334L63.4351 42.8186L62.3027 42.876ZM55.6992 36.2725L55.7566 35.1401L55.7418 35.1394L55.7269 35.139L55.6992 36.2725ZM55.3398 22.7881L55.3398 23.9219C63.7477 23.9219 70.9026 29.2958 73.554 36.7996L74.623 36.4219L75.6921 36.0442C72.7306 27.6628 64.7389 21.6543 55.3398 21.6543L55.3398 22.7881ZM74.623 36.4219L74.623 37.5556L113.759 37.5557L113.759 36.4219L113.759 35.2881L74.623 35.2881L74.623 36.4219ZM113.759 36.4219L113.759 37.5557C116.897 37.5557 119.44 40.0995 119.44 43.2373L120.574 43.2373L121.708 43.2373C121.708 38.8471 118.149 35.2882 113.759 35.2881L113.759 36.4219ZM120.574 43.2373L119.44 43.2373C119.44 46.3751 116.896 48.919 113.758 48.919L113.758 50.0527L113.758 51.1865C118.148 51.1865 121.708 47.6278 121.708 43.2373L120.574 43.2373ZM113.758 50.0527L112.624 50.0527L112.624 55.1621L113.758 55.1621L114.892 55.1621L114.892 50.0527L113.758 50.0527ZM113.758 55.1621L112.624 55.1621C112.624 57.3587 110.843 59.1397 108.646 59.1397L108.646 60.2734L108.646 61.4072C112.094 61.4072 114.891 58.6115 114.892 55.1622L113.758 55.1621ZM108.646 60.2734L108.646 59.1397C106.449 59.1395 104.668 57.3588 104.668 55.1621L103.534 55.1621L102.4 55.1622C102.401 58.6112 105.197 61.407 108.645 61.4072L108.646 60.2734ZM103.534 55.1621L104.668 55.1621L104.668 50.0527L103.534 50.0527L102.4 50.0527L102.4 55.1621L103.534 55.1621ZM103.534 50.0527L103.534 48.919L100.126 48.919L100.126 50.0527L100.126 51.1865L103.534 51.1865L103.534 50.0527ZM100.126 50.0527L98.9922 50.0527L98.9922 51.7549L100.126 51.7549L101.26 51.7549L101.26 50.0527L100.126 50.0527ZM100.126 51.7549L98.9922 51.7549C98.9922 53.9517 97.2115 55.7324 95.0146 55.7324L95.0146 56.8662L95.0147 58C98.4638 57.9999 101.26 55.2041 101.26 51.7549L100.126 51.7549ZM95.0146 56.8662L95.0146 55.7324C92.8178 55.7324 91.0371 53.9518 91.0371 51.7549L89.9033 51.7549L88.7695 51.7549C88.7696 55.2041 91.5654 58 95.0146 58L95.0146 56.8662ZM89.9033 51.7549L91.0371 51.7549L91.0371 50.0527L89.9033 50.0527L88.7695 50.0527L88.7695 51.7549L89.9033 51.7549ZM89.9033 50.0527L89.9033 48.919L74.6221 48.919L74.6221 50.0527L74.6221 51.1865L89.9033 51.1865L89.9033 50.0527ZM74.6221 50.0527L73.5532 49.6748C70.9006 57.1762 63.7461 62.5479 55.3398 62.5479L55.3398 63.6816L55.3398 64.8154C64.737 64.8154 72.7281 58.8096 75.691 50.4307L74.6221 50.0527ZM55.3398 63.6816L55.3545 62.548L54.8272 62.5411L54.8125 63.6748L54.7978 64.8085L55.3251 64.8153L55.3398 63.6816ZM54.8125 63.6748L54.8412 62.5414C44.406 62.277 36.0273 53.7338 36.0273 43.2344L34.8936 43.2344L33.7598 43.2344C33.7598 54.9669 43.122 64.5127 54.7838 64.8082L54.8125 63.6748ZM34.8936 43.2344L36.0273 43.2344C36.0276 32.5685 44.6739 23.9221 55.3399 23.9219L55.3398 22.7881L55.3398 21.6543C43.4216 21.6546 33.76 31.3161 33.7598 43.2344L34.8936 43.2344ZM55.3398 36.2637L55.3398 35.1299C50.864 35.1302 47.2356 38.7585 47.2354 43.2343L48.3691 43.2344L49.5029 43.2344C49.5031 40.0108 52.1163 37.3976 55.3399 37.3974L55.3398 36.2637ZM48.3691 43.2344L47.2354 43.2344C47.2354 47.7103 50.8637 51.3395 55.3398 51.3398L55.3398 50.2061L55.3399 49.0723C52.1163 49.0721 49.5029 46.4583 49.5029 43.2344L48.3691 43.2344ZM55.3398 50.2061L55.3398 51.3398C59.6763 51.3398 63.2178 47.9346 63.4351 43.6512L62.3027 43.5938L61.1704 43.5363C61.0141 46.6194 58.4627 49.0723 55.3398 49.0723L55.3398 50.2061ZM62.3027 43.5938L63.4362 43.6215L63.445 43.2621L62.3115 43.2344L61.1781 43.2067L61.1693 43.566L62.3027 43.5938ZM62.3115 43.2344L63.445 43.2066L63.4362 42.8482L62.3027 42.876L61.1693 42.9038L61.1781 43.2622L62.3115 43.2344ZM62.3027 42.876L63.4351 42.8186C63.2249 38.6731 59.902 35.3504 55.7566 35.1401L55.6992 36.2725L55.6418 37.4048C58.6252 37.5561 61.0192 39.95 61.1704 42.9334L62.3027 42.876ZM55.6992 36.2725L55.7269 35.139L55.3676 35.1302L55.3398 36.2637L55.3121 37.3971L55.6715 37.4059L55.6992 36.2725Z" fill="url(#paint0_linear_4710_1984)" fill-opacity="0.25" mask="url(#path-1-inside-1_4710_1984)"/>
</g>
<path d="M39.999 22.875L46.5274 24.2256L47.874 30.75L49.2207 24.2256L55.7491 22.875L49.2207 21.5284L47.874 15L46.5274 21.5284L39.999 22.875Z" fill="white"/>
<path d="M105.25 58.875L111.778 60.2256L113.125 66.75L114.472 60.2256L121 58.875L114.472 57.5284L113.125 51L111.778 57.5284L105.25 58.875Z" fill="white"/>
<path d="M31 61.124L37.5284 62.4746L38.875 68.9991L40.2217 62.4746L46.75 61.124L40.2217 59.7774L38.875 53.249L37.5284 59.7774L31 61.124Z" fill="white"/>
<g filter="url(#filter1_f_4710_1984)">
<rect width="66" height="6" rx="3" transform="matrix(-1 0 0 1 109 77.2344)" fill="black" fill-opacity="0.15"/>
</g>
<defs>
<filter id="filter0_ddi_4710_1984" x="0.88039" y="0.112642" width="153.707" height="108.92" filterUnits="userSpaceOnUse" color-interpolation-filters="sRGB">
<feFlood flood-opacity="0" result="BackgroundImageFix"/>
<feColorMatrix in="SourceAlpha" type="matrix" values="0 0 0 0 0 0 0 0 0 0 0 0 0 0 0 0 0 0 127 0" result="hardAlpha"/>
<feOffset dy="11.3377"/>
<feGaussianBlur stdDeviation="17.0066"/>
<feComposite in2="hardAlpha" operator="out"/>
<feColorMatrix type="matrix" values="0 0 0 0 1 0 0 0 0 1 0 0 0 0 1 0 0 0 0.2 0"/>
<feBlend mode="normal" in2="BackgroundImageFix" result="effect1_dropShadow_4710_1984"/>
<feColorMatrix in="SourceAlpha" type="matrix" values="0 0 0 0 0 0 0 0 0 0 0 0 0 0 0 0 0 0 127 0" result="hardAlpha"/>
<feOffset dy="4"/>
<feGaussianBlur stdDeviation="1"/>
<feComposite in2="hardAlpha" operator="out"/>
<feColorMatrix type="matrix" values="0 0 0 0 1 0 0 0 0 1 0 0 0 0 1 0 0 0 0.2 0"/>
<feBlend mode="normal" in2="effect1_dropShadow_4710_1984" result="effect2_dropShadow_4710_1984"/>
<feBlend mode="normal" in="SourceGraphic" in2="effect2_dropShadow_4710_1984" result="shape"/>
<feColorMatrix in="SourceAlpha" type="matrix" values="0 0 0 0 0 0 0 0 0 0 0 0 0 0 0 0 0 0 127 0" result="hardAlpha"/>
<feOffset dy="11.3377"/>
<feGaussianBlur stdDeviation="8.50329"/>
<feComposite in2="hardAlpha" operator="arithmetic" k2="-1" k3="1"/>
<feColorMatrix type="matrix" values="0 0 0 0 1 0 0 0 0 1 0 0 0 0 1 0 0 0 0.5 0"/>
<feBlend mode="normal" in2="shape" result="effect3_innerShadow_4710_1984"/>
</filter>
<filter id="filter1_f_4710_1984" x="33" y="67.2344" width="86" height="26" filterUnits="userSpaceOnUse" color-interpolation-filters="sRGB">
<feFlood flood-opacity="0" result="BackgroundImageFix"/>
<feBlend mode="normal" in="SourceGraphic" in2="BackgroundImageFix" result="shape"/>
<feGaussianBlur stdDeviation="5" result="effect1_foregroundBlur_4710_1984"/>
</filter>
<linearGradient id="paint0_linear_4710_1984" x1="77.7339" y1="22.7881" x2="77.7339" y2="63.6815" gradientUnits="userSpaceOnUse">
<stop stop-color="white" stop-opacity="0.4"/>
<stop offset="1" stop-color="white"/>
</linearGradient>
</defs>
</svg>
