<svg width="29" height="19" viewBox="0 0 29 19" fill="none" xmlns="http://www.w3.org/2000/svg">
<path d="M14.8 0.200195C6.47005 0.200195 1.09405 8.7962 0.996049 8.9502C0.870049 9.1182 0.800049 9.3282 0.800049 9.5382C0.800049 9.7202 0.856049 9.8882 0.954049 10.0422C0.968049 10.0702 5.49005 18.8622 14.8 18.8622C24.082 18.8622 28.576 10.1682 28.632 10.0562L28.646 10.0422C28.744 9.8882 28.8 9.7202 28.8 9.5382C28.8 9.3282 28.73 9.1182 28.604 8.9642C28.5061 8.7962 23.13 0.200195 14.8 0.200195ZM14.8 3.0002C18.412 3.0002 21.338 5.9262 21.338 9.5382C21.338 13.1502 18.412 16.0762 14.8 16.0762C11.188 16.0762 8.26205 13.1362 8.26205 9.5382C8.26205 5.9402 11.188 3.0002 14.8 3.0002ZM14.8 6.7382C13.26 6.7382 12 7.9982 12 9.5382C12 11.0782 13.26 12.3382 14.8 12.3382C16.34 12.3382 17.6 11.0782 17.6 9.5382C17.6 7.9982 16.34 6.7382 14.8 6.7382Z" fill="#CCCCCC"/>
</svg>
